<svg xmlns="http://www.w3.org/2000/svg" width="574.32" height="532.675"><g data-name="Group 521" fill="#29b4e3"><path data-name="Path 2880" d="M269.87 57.009c65.711-2.646 125.155 28.214 165.838 79.883 56.917 72.288 128.2 159.515 87.709 242.132-42.641 87-156.729 99.963-253.547 96.238C180.732 471.833 84.098 442.309 48 360.735c-32.555-73.565 30.205-146.4 77.658-211.358 36.091-49.406 83.077-89.907 144.212-92.369" opacity=".39"/><path data-name="Path 2881" d="M342.276 77.59c58.317 19.732 99.917 66.646 118.139 125.453 25.493 82.269 58.528 182.42-4.576 241.039-66.455 61.732-170.514 34.783-253.88-.952-76.755-32.902-151.305-91.124-155.483-174.526-3.772-75.216 75.513-117.814 138.779-158.668 48.118-31.072 102.77-50.705 157.022-32.349"/></g></svg>