<svg xmlns="http://www.w3.org/2000/svg" xmlns:xlink="http://www.w3.org/1999/xlink" width="586.651" height="364.628"><defs><linearGradient id="N" x1=".502" y1="-.013" x2=".502" y2="1.006" gradientUnits="objectBoundingBox"><stop offset="0" stop-color="#ed7565"/><stop offset="1" stop-color="#f75640"/></linearGradient><linearGradient id="a" x1=".678" y1="-.672" x2=".678" y2="1.006" gradientUnits="objectBoundingBox"><stop offset="0" stop-color="#35a3a1"/><stop offset=".307" stop-color="#399"/><stop offset=".809" stop-color="#2e8183"/><stop offset="1" stop-color="#2c767a"/></linearGradient><linearGradient id="o" x1=".481" y1=".008" x2=".481" y2="1.227" xlink:href="#a"/><linearGradient id="p" x1=".78" y1="-.103" x2=".78" y2="1.251" xlink:href="#a"/><linearGradient id="q" x1="-1.478" y1="-.103" x2="-1.478" y2="1.251" xlink:href="#a"/><linearGradient id="f" x1=".5" y1="-.018" x2=".5" y2="1.012" gradientUnits="objectBoundingBox"><stop offset="0" stop-color="#987fc9"/><stop offset="1" stop-color="#60578f"/></linearGradient><linearGradient id="b" x1="-10.931" y1=".5" x2="11.931" y2=".5" gradientUnits="objectBoundingBox"><stop offset=".004" stop-color="#ffe675"/><stop offset="1" stop-color="#e57830"/></linearGradient><linearGradient id="r" x1=".5" y1="1.009" x2=".5" y2="-.015" xlink:href="#b"/><linearGradient id="s" x1=".5" y1="-.005" x2=".5" y2="1.004" gradientUnits="objectBoundingBox"><stop offset="0" stop-color="#67c8cf"/><stop offset=".606" stop-color="#499eb7"/><stop offset="1" stop-color="#3581a7"/></linearGradient><linearGradient id="an" x1=".5" y1="-.419" x2=".5" y2="21.672" xlink:href="#m"/><linearGradient id="am" x1=".5" y1="-20.75" x2=".5" y2="1.342" xlink:href="#m"/><linearGradient id="al" x1=".5" y1="-.214" x2=".5" y2="11.081" xlink:href="#m"/><linearGradient id="m" x1=".5" y1="-10.121" x2=".5" y2="1.175" gradientUnits="objectBoundingBox"><stop offset="0" stop-color="#544140"/><stop offset=".796" stop-color="#493635"/><stop offset="1" stop-color="#463332"/></linearGradient><linearGradient id="ak" x1=".5" y1="-.102" x2=".5" y2="1.098" xlink:href="#g"/><linearGradient id="x" x1="0" x2="1" xlink:href="#b"/><linearGradient id="e" x1=".503" y1="-.022" x2=".503" y2="1.005" gradientUnits="objectBoundingBox"><stop offset=".004" stop-color="#ffeea3"/><stop offset="1" stop-color="#eb945b"/></linearGradient><linearGradient id="d" x1="20.829" y1="2.323" x2="20.829" y2="5.198" gradientUnits="objectBoundingBox"><stop offset="0" stop-color="#544140"/><stop offset=".534" stop-color="#503d3c"/><stop offset="1" stop-color="#463332"/></linearGradient><linearGradient id="y" x1=".984" y1="-2.376" x2=".984" y2="1.528" xlink:href="#d"/><linearGradient id="z" x1="5.593" y1="2.208" x2="5.593" y2="3.783" xlink:href="#d"/><linearGradient id="A" x1=".505" y1="-.147" x2=".505" y2="1.052" xlink:href="#e"/><linearGradient id="B" x1="-2.196" y1="-.059" x2="-2.196" y2="1.519" xlink:href="#d"/><linearGradient id="C" x1="-3.351" y1="-.169" x2="-3.351" y2="1.409" xlink:href="#d"/><linearGradient id="D" x1=".505" y1="-.144" x2=".505" y2="1.04" xlink:href="#e"/><linearGradient id="E" x1=".497" y1="-.057" x2=".497" y2="1.144" xlink:href="#d"/><linearGradient id="F" x1=".501" y1="-.03" x2=".501" y2="5.937" xlink:href="#e"/><linearGradient id="G" x1=".501" y1="-.051" x2=".501" y2="1.151" xlink:href="#d"/><linearGradient id="H" x1=".504" y1="-.117" x2=".504" y2=".994" xlink:href="#f"/><linearGradient id="I" x1=".503" y1=".006" x2=".503" y2="5.972" xlink:href="#f"/><linearGradient id="J" x1=".507" y1=".001" x2=".507" y2=".997" xlink:href="#f"/><linearGradient id="g" x1=".502" y1="-.013" x2=".502" y2=".997" gradientUnits="objectBoundingBox"><stop offset="0" stop-color="#80d5c9"/><stop offset=".77" stop-color="#56acb3"/><stop offset="1" stop-color="#49a0ad"/></linearGradient><linearGradient id="K" x1=".504" y1="-.021" x2=".504" y2=".997" xlink:href="#g"/><linearGradient id="L" x1=".502" y1="-.01" x2=".502" y2=".993" xlink:href="#b"/><linearGradient id="M" x1=".503" y1="-.021" x2=".503" y2=".993" xlink:href="#b"/><linearGradient id="n" x1="-1.645" y1="-.852" x2="-1.645" y2=".998" xlink:href="#a"/><linearGradient id="O" x1=".504" y1="-.122" x2=".504" y2="1.423" xlink:href="#f"/><linearGradient id="h" x1=".572" y1="1.024" x2=".572" y2=".304" gradientUnits="objectBoundingBox"><stop offset="0" stop-color="#ffb182"/><stop offset="1" stop-color="#ec6b47"/></linearGradient><linearGradient id="P" x1="-78.444" y1="1.021" x2="-78.444" y2="2.34" xlink:href="#d"/><linearGradient id="Q" x1="-142.107" y1="1.114" x2="-142.107" y2="2.498" xlink:href="#d"/><linearGradient id="R" x1=".503" y1="-2.701" x2=".503" y2="1.552" xlink:href="#d"/><linearGradient id="S" x1=".514" y1="-1.016" x2=".514" y2=".456" xlink:href="#d"/><linearGradient id="T" x1=".504" y1=".03" x2=".504" y2="3.503" xlink:href="#d"/><linearGradient id="U" x1="1.428" y1="1.037" x2="1.428" y2=".316" xlink:href="#h"/><linearGradient id="V" x1="-77.735" y1="1.07" x2="-77.735" y2="2.39" xlink:href="#d"/><linearGradient id="W" x1="-138.595" y1="1.165" x2="-138.595" y2="2.55" xlink:href="#d"/><linearGradient id="X" x1=".513" y1="-.071" x2=".513" y2="1.132" xlink:href="#d"/><linearGradient id="j" x1=".496" y1="-.178" x2=".496" y2="1.378" gradientUnits="objectBoundingBox"><stop offset="0" stop-color="#9e5141"/><stop offset=".245" stop-color="#864235"/><stop offset=".746" stop-color="#5a271f"/><stop offset="1" stop-color="#491d17"/></linearGradient><linearGradient id="Y" x1=".502" y1="-.027" x2=".502" y2="1.334" xlink:href="#f"/><linearGradient id="i" x1="17.555" y1="1.676" x2="17.555" y2=".466" gradientUnits="objectBoundingBox"><stop offset="0" stop-color="#ffb182"/><stop offset=".224" stop-color="#fdac7e"/><stop offset=".476" stop-color="#fa9e72"/><stop offset=".74" stop-color="#f4885f"/><stop offset="1" stop-color="#ec6b47"/></linearGradient><linearGradient id="Z" x1="13.814" y1="1.897" x2="13.814" y2="-.547" xlink:href="#i"/><linearGradient id="aa" x1="37.842" y1="-26.024" x2="37.842" y2="-20.009" gradientUnits="objectBoundingBox"><stop offset="0" stop-color="#ffb283"/><stop offset=".223" stop-color="#fdad7f"/><stop offset=".472" stop-color="#fa9f73"/><stop offset=".736" stop-color="#f48960"/><stop offset="1" stop-color="#ed6b47"/></linearGradient><linearGradient id="ab" x1="49.223" y1="-1.327" x2="49.223" y2="1.125" xlink:href="#j"/><linearGradient id="ac" x1="36.442" y1="-.356" x2="36.442" y2="3.805" xlink:href="#j"/><linearGradient id="ad" x1=".495" y1="-.639" x2=".495" y2="2.287" xlink:href="#j"/><linearGradient id="ae" x1=".497" y1="-.049" x2=".497" y2="2.159" xlink:href="#j"/><linearGradient id="k" x1=".228" y1="4.677" x2="3.977" y2="-29.167" gradientUnits="objectBoundingBox"><stop offset="0" stop-color="#ffb182"/><stop offset=".222" stop-color="#fdac7e"/><stop offset=".477" stop-color="#f99e72"/><stop offset=".746" stop-color="#f3875f"/><stop offset="1" stop-color="#ec6b47"/></linearGradient><linearGradient id="af" x1="-.229" y1="16.027" x2="-.229" y2="-15.089" xlink:href="#k"/><linearGradient id="ag" x1="-2.717" y1=".499" x2="-1.717" y2=".499" xlink:href="#d"/><linearGradient id="ah" x1="7.36" y1="-.768" x2="7.36" y2=".353" xlink:href="#d"/><linearGradient id="l" x1=".503" y1=".004" x2=".503" y2=".983" gradientUnits="objectBoundingBox"><stop offset="0" stop-color="#d9cbcb"/><stop offset=".379" stop-color="#d5c7c7"/><stop offset=".754" stop-color="#c9bbbb"/><stop offset="1" stop-color="#bdb0b0"/></linearGradient><linearGradient id="ai" x1=".007" y1=".489" x2="1.007" y2=".489" xlink:href="#l"/><linearGradient id="aj" x1=".504" y1="-.056" x2=".504" y2="1.45" xlink:href="#f"/><linearGradient id="ao" x1=".5" y1="-.102" x2=".5" y2="1.098" xlink:href="#b"/><radialGradient id="w" cx="-.98" cy="2.086" r="4.634" xlink:href="#c"/><radialGradient id="v" cx=".161" cy="3.953" r="6.362" xlink:href="#c"/><radialGradient id="u" cx="-.353" cy=".278" r="1.085" xlink:href="#c"/><radialGradient id="t" cx="1.26" cy=".69" r="1.442" xlink:href="#c"/><radialGradient id="c" cx=".941" cy="-.281" r="1.404" gradientUnits="objectBoundingBox"><stop offset="0" stop-color="#bfe643"/><stop offset=".329" stop-color="#b6dc41"/><stop offset=".867" stop-color="#9dc43d"/><stop offset="1" stop-color="#97bd3c"/></radialGradient></defs><g data-name="Group 206"><g data-name="Group 205"><path data-name="Path 2648" d="M612.651 400.586c0 12.708-131.327 33.469-293.326 33.469S26 413.294 26 400.586s131.327-12.55 293.326-12.55 293.325-.158 293.325 12.55Z" transform="translate(-26 -69.427)" fill="#29b4e3" opacity=".34" style="mix-blend-mode:multiply;isolation:isolate"/><g data-name="Group 159"><g data-name="Group 158"><path data-name="Path 2649" d="M354.827 358.045c-2-15.768-14.039-41.72-18.733-74.8-5.253-37.022 4.807-80.955 4.807-80.955s18.787 45.237 24.606 80.955c5.22 32.039.192 62.357 2.051 75.254Z" transform="translate(60.678 -121.604)" fill="url(#a)"/><path data-name="Path 2650" d="M377.33 355.105c1.763-14.183 12.107-37.36 16.115-66.607 4.432-32.336-4.035-70.18-4.035-70.18s-15.89 38.976-20.953 70.18c-4.595 28.317-.43 55.4-2.087 67.013Z" transform="translate(69.565 -117.1)" fill="url(#n)"/><path data-name="Path 2651" d="M354.827 358.045c-2-15.768-14.039-41.72-18.733-74.8-5.253-37.022 4.807-80.955 4.807-80.955s18.787 45.237 24.606 80.955c5.22 32.039.192 62.357 2.051 75.254Z" transform="translate(60.678 -121.604)" fill="#246266" opacity=".4" style="mix-blend-mode:multiply;isolation:isolate"/><path data-name="Path 2652" d="M377.33 355.105c1.763-14.183 12.107-37.36 16.115-66.607 4.432-32.336-4.035-70.18-4.035-70.18s-15.89 38.976-20.953 70.18c-4.595 28.317-.43 55.4-2.087 67.013Z" transform="translate(69.565 -117.1)" fill="#246266" opacity=".4" style="mix-blend-mode:multiply;isolation:isolate"/><path data-name="Path 2653" d="M360.319 364.228c0-17.848-8.8-47.519-9.365-85.879-.637-43.652 15.492-96.477 15.492-96.477s13.3 54.377 14.423 96.477c.994 37.156-8.067 71.8-7.889 86.388Z" transform="translate(65.274 -127.338)" fill="url(#o)"/><path data-name="Path 2654" d="M349.7 360.96c-3.5-16.689-17.93-44.279-25.877-79.673-8.959-39.9-3.376-87.665-3.376-87.665S343.724 242.8 353 281.287c8.263 34.278 6.209 66.5 9.272 80.15Z" transform="translate(56.227 -124.037)" fill="url(#p)"/><path data-name="Path 2655" d="M386.27 355.506c3.261-14.651 16.612-38.642 23.785-69.006 7.96-33.685 2.577-73.262 2.577-73.262S391.676 254 383.2 286.5c-7.669 29.4-5.811 57.435-8.7 69.426Z" transform="translate(71.892 -118.527)" fill="url(#q)"/><path data-name="Path 2656" d="M412.163 213.238s-2.886 44.158-11.674 74.916c-6.576 23.018-20.456 54.112-24.322 67.558l9.634-.206c3.261-14.651 16.612-38.643 23.785-69.006 7.959-33.685 2.577-73.262 2.577-73.262Z" transform="translate(72.362 -118.527)" fill="#246266" opacity=".4" style="mix-blend-mode:multiply;isolation:isolate"/><path data-name="Path 2657" d="M360.325 364.228c.881-12.163 8.683-50.015 8.108-88.221-.724-48.131-4.624-94.136-4.624-94.136s13.3 54.377 14.423 96.477c.994 37.156-8.067 71.8-7.889 86.388Z" transform="translate(67.911 -127.338)" fill="#246266" opacity=".4" style="mix-blend-mode:multiply;isolation:isolate"/><path data-name="Path 2658" d="M352.761 360.96c-3.4-16.689-2.084-44.729-8.882-80.178-7.664-39.969-23.808-87.16-23.808-87.16s23.277 49.174 32.554 87.665c8.263 34.278 6.209 66.5 9.272 80.15Z" transform="translate(56.604 -124.037)" fill="#246266" opacity=".4" style="mix-blend-mode:multiply;isolation:isolate"/><path data-name="Path 2659" d="M401.282 237.027c3.056.611.105 19.181-4.636 36.457-4.285 15.618-10.032 30.177-14.124 29.456-8.622-1.523 13.69-66.927 18.76-65.913Z" transform="translate(73.596 -111.848)" fill="#47b3aa" opacity=".4" style="mix-blend-mode:screen;isolation:isolate"/><path data-name="Path 2660" d="M323.128 219.614c2.986-.9 9.5 22.578 13.437 40.054 3.561 15.8 5.545 37.62 1.593 38.907-3.8 1.236-10.47-16.668-13.762-34.6-3.922-21.362-3.959-43.552-1.268-44.361Z" transform="translate(56.938 -116.744)" fill="#47b3aa" opacity=".4" style="mix-blend-mode:screen;isolation:isolate"/><path data-name="Path 2661" d="M362.657 207.534c4.475.086 5.34 85.166-4.144 85.433s-1.462-85.541 4.144-85.433Z" transform="translate(66.17 -120.13)" fill="#47b3aa" opacity=".4" style="mix-blend-mode:screen;isolation:isolate"/></g><path data-name="Path 2662" d="M393.154 407.273h-39.125c-10.6-20.628-19.215-47.867-25.776-85.28h90.677c-7.045 39.918-15.6 66.621-25.776 85.28Z" transform="translate(58.902 -87.978)" fill="url(#f)"/><path data-name="Path 2663" d="M476.709 240.184c.378-2.024.753-4.076 1.123-6.171h-90.677q.549 3.136 1.12 6.171Z" fill="#d8ccff"/><path data-name="Path 2664" d="M375.579 321.992s-3.087 51.855-12.133 85.281h19.823c10.175-18.659 18.731-45.362 25.776-85.281Z" transform="translate(68.788 -87.979)" fill="#60578f" opacity=".3" style="mix-blend-mode:multiply;isolation:isolate"/></g><g data-name="Group 163" transform="translate(39.175)"><path data-name="Rectangle 38" transform="rotate(-45 54.093 -23.593)" fill="url(#b)" d="M0 0h8.057v252.439H0z"/><path data-name="Path 2665" d="M264.609 336.252 95.954 167.6l-8.281-8.281-2.163 2.162-3.531 3.537 8.831 8.831q1.529-1.989 3.148-3.918L262.28 338.247q-1.933 1.616-3.92 3.148l2.12 2.12 5.694-5.7Z" transform="translate(-49.451 -133.674)" fill="#9e4435" opacity=".4" style="mix-blend-mode:multiply;isolation:isolate"/><path data-name="Rectangle 39" transform="translate(125.66 233.97)" fill="url(#r)" d="M0 0h14.553v60.452H0z"/><circle data-name="Ellipse 21" cx="109.428" cy="109.428" r="109.428" transform="translate(23.509 .001)" fill="url(#s)"/><g data-name="Group 160"><path data-name="Path 2666" d="M166.4 256.18c-6.589-4.2-15.792-3.9-22.683-8.258-3.539-2.238-6.869-5.311-10.074-7.852-2.3-1.823-4.638-5.368-7.343-7.219-3.683-2.518-5.692-.387-9.726-1.164-3.8-.731-5.56-3.213-10.077-2.8 1 1 .169-.35.465 1.586-3.457.867-7.989 6.554-8.34 9.58-.3 2.584 2.076 5.349 1.715 8.3-.355 2.9-2.162 4.721-2.249 7.806-.183 6.364 3.294 9.967 7.167 14.136 3.079 3.315 4.837 7.854 8.545 10.7 2.345 1.8 5.346 2.4 7.81 4.005 9.193 6 9.381 20.446 15.8 28.281 1.9 2.323 18.049 16.489 22.151 12.323 2.115-2.148-2.01-3.014-2.573-4.911-.73-2.459.161-3.421.337-5.61.414-5.143 3.515-9.144 4.055-13.994.323-2.908-2.391-5.708-.161-8.312 1.277-1.49 3.553-.407 5.176-1.163 6.08-2.833 5.118-7.085 4.067-12.941-1.462-8.125 4.506-17.031-4.062-22.493Z" transform="translate(-44.927 -114.143)" fill="url(#c)"/><path data-name="Path 2667" d="M79.528 246.343c2.7 1.089 5.149-.558 7.742.725 1.93.957 3.189 3.4 4.876 3.452a4.815 4.815 0 0 0 3.284.776c2.167-4.614-3.376-7.053-6.48-9.334-2.222-1.633-3.554-.922-4.883-4.036-1.132-2.657-.861-6.141-.738-9.02.3-6.991 6.757-10.272 13.434-9.053 2.8.511 4.012 2.472 6.547-.156 2.307-2.394 2.185-6.316 4.8-8.974 5.277-5.371 8.147-11.446 15.03-14.911a58.491 58.491 0 0 0 9.728-5.7c4.655-3.657 1.107-4.623 2.929-8.87 1.355-3.157 4.6-2.335 7.457-3.033 2.7-.662 7.41-2.158 8.938-4.655 2.1-3.438.081-5.285-1.187-8.235-.615-1.428.478-2.789-1.105-3.813-2.627-1.7-2.964 1.616-4.857 1.632-1.819.013-2.484-1.651-3.99-1.634-2.865.032-3.068 1.966-4.812 3.761a17.229 17.229 0 0 1-14.319 5.074c-4.739-.529-7.723-1.993-2.918-5.592 2.329-1.745 3.275-.812 3.82-4.085.127-.76-1.053-2.235-.515-3.7a7.426 7.426 0 0 0-3.52-.634 109.26 109.26 0 0 0-43.839 85.781 10.742 10.742 0 0 0 4.578 4.234Z" transform="translate(-51.425 -134.514)" fill="url(#t)"/><path data-name="Path 2668" d="M242.33 186.511c-1.816.962-2.821 4-4.42 4.483-1.154.351-7.942-2.069-9.705-2.548s-4.966-1.1-5.823-2.709c-1.7-3.206 1.918-5.694-3.8-5.706-2.053-.005-5.273 1-7.656 1.281a26.66 26.66 0 0 0-7.3 2.1c-2.033.847-3.6 1.932-5.63 1.8-.088.4-.228.775-.842.716-3.338.289-7.234 4.459-8.626 7.117-1.168 2.231-1.057 4.126-2.626 6.337-1.226 1.73-2.855 3-4.187 4.6-3.866 4.619-4.879 8.643-4.292 14.588.436 4.41-2.06 9.514-.644 13.329 1.059 2.854 3.938 3.832 5.609 6.11 1.435 1.953 1.578 4.624 3.253 6.471 3.727 4.11 8.959 2.687 13.634 3.15 1.757.173 3.608 1.514 5.65.818 2.175-.742 3.058-3.624 5.837-4.133 2.452-.451 3.3 1.105 5.18 1.33 1.973.233 3.788-.767 5.719-.526 5.489.684 2.75 8.127 5.615 12.178 1.313 1.855 3.371 3.015 4.511 5.281 1.593 3.168 1.26 5.733 1.982 9.015.451 2.047 3.31 4.277 3.284 5.855-.038 2.21-2.434 2.226-3.182 3.99-1.122 2.644-.058 6.682 1.066 9.13a36.88 36.88 0 0 1 2.915 8.9c.347 1.581 1.31 5.448 2.968 6.807a109.551 109.551 0 0 0 15.208-113.134c-3.597-5.11-8.228-9.526-13.698-6.63Z" transform="translate(-22.943 -127.855)" fill="url(#u)"/><path data-name="Path 2669" d="M177.067 141.8c-5.893-1.836-10.745-.042-16.632 1.162-2.683.548-12.954-.069-13.311 3.757-1.579 1.722 2.184 1.295 3.148 1.044 1.556-.4 2.773-.9 4.372-.168a11.727 11.727 0 0 1-1.632 5.851c-1.3 2.311-3.387 3.143-2.692 6.4.494 2.324 3.716 3.191 6.082 2.422 1.909-.62 3.456-3.078 4.992-4.381a12.285 12.285 0 0 1 5.918-2.782c2.973-.571 6.006-1 8.941-1.827 3.638-1.027 7.2-3.4 10.984-3.635 1.704-3.411-8.132-7.205-10.17-7.843Z" transform="translate(-31.259 -138.814)" fill="url(#v)"/><path data-name="Path 2670" d="M186.525 183.659c-.43 3.032.476 4.752 3.886 5.189 2.625.337 5.508-1.2 7.765-2.612a6.141 6.141 0 0 0 2.928-3.685c.911-2.175 2.567-1.974 3.957-3.511 1.413-1.561.932-2.982 3.613-3.987a7.9 7.9 0 0 1 6.3.32c3.794 1.691 10.826 5.541 14.789 2.207 2.138-1.8 1.282-4.382-.129-6.508-3-4.52-7.707-9.841-13.142-11.262a14.906 14.906 0 0 0-9.681.76c-2.374 1.12-3.141 3.784-5.484 5.006-2.664 1.391-5.352.53-3.535 4.338.515 1.081 1.3 1.574 1.235 3.1-.053 1.166-.117 2.144-1.255 2.731-3.095 1.592-7.357-1.113-10.484.938l.006.031c-1.295.651-1.171 1.891-1.035 3.11a12.1 12.1 0 0 1 .266 3.835Z" transform="translate(-20.181 -133.667)" fill="url(#w)"/></g><path data-name="Path 2671" d="M181.533 139.3a108.928 108.928 0 0 0-62.983 19.935 96.144 96.144 0 1 1-33.53 141.106A109.437 109.437 0 1 0 181.533 139.3Z" transform="translate(-48.596 -139.297)" fill="#26426a" opacity=".3" style="mix-blend-mode:multiply;isolation:isolate"/><path data-name="Path 2672" d="M163.643 321.958v.266q-.838.011-1.677.013-3.666 0-7.279-.222v13.456q3.616.2 7.279.2c.56 0 1.118-.005 1.677-.012v46.75h5.6v-60.451Z" transform="translate(-29.027 -87.988)" fill="#9e4435" opacity=".4" style="mix-blend-mode:multiply;isolation:isolate"/><path data-name="Path 2673" d="M271.613 390.722H89.139v-11.194q92.357-26.868 182.474 0Z" transform="translate(-47.439 -75.59)" fill="url(#x)"/><path data-name="Path 2674" d="M189.523 378.3c-73.3 0-132.939-59.635-132.939-132.935a132.044 132.044 0 0 1 39.028-94.092l9.485 9.511a119.5 119.5 0 1 0 169 169l9.512 9.491a132.065 132.065 0 0 1-94.086 39.025Z" transform="translate(-56.584 -135.933)" fill="url(#x)"/><path data-name="Path 2675" d="M181.079 366.1a37.667 37.667 0 0 1 18.609 13.433H89.139v11.194h182.474v-11.199a315.891 315.891 0 0 0-90.534-13.428Z" transform="translate(-47.439 -75.59)" fill="#9e4435" opacity=".4" style="mix-blend-mode:multiply;isolation:isolate"/><g data-name="Group 161" fill="#9e4435"><path data-name="Path 2676" d="M66.635 239.348a119.919 119.919 0 0 0 1.227 17.142 120.239 120.239 0 0 1-.667-12.664 118.7 118.7 0 0 1 35.079-84.58l-2.494-2.5a118.649 118.649 0 0 0-33.145 82.602Z" transform="translate(-53.76 -134.396)" opacity=".4" style="mix-blend-mode:multiply;isolation:isolate"/><path data-name="Path 2677" d="M280.9 312.953a132.016 132.016 0 0 1-92.107 37.083c-66.9 0-122.424-49.681-131.606-114.087 7.188 66.567 63.72 118.565 132.166 118.565a132.065 132.065 0 0 0 94.088-39.025Z" transform="translate(-56.414 -112.147)" opacity=".4" style="mix-blend-mode:multiply;isolation:isolate"/></g><g data-name="Group 162" opacity=".4" style="mix-blend-mode:screen;isolation:isolate" fill="#fff7e6"><path data-name="Path 2678" d="M117.571 27.203c38.044 31.66-45.838 75.157-66.429 58.894-31.935-25.22 33.247-86.51 66.429-58.894Z"/><path data-name="Path 2679" d="M51.107 102.837c29.84-2.039 19.33 39.067 5 39.63-22.219.87-28.39-38.038-5-39.63Z"/></g></g><g data-name="Group 200"><g data-name="Group 167"><path data-name="Path 2680" d="m393.676 299.9-123.39 122.678 246.069.711Zm-.1 34.121 65.828 66.21-132.036-.382Z" transform="translate(42.62 -94.185)" fill="url(#e)"/><g data-name="Group 165" opacity=".4" style="mix-blend-mode:multiply;isolation:isolate" fill="#463332"><g data-name="Group 164"><path data-name="Path 2681" d="m447.221 224.87-.53-.53 4.085-4.065.53.53Z"/><path data-name="Path 2682" d="m450.549 228.213-.53-.53 4.085-4.065.53.53Z"/><path data-name="Path 2683" d="m458.127 235.828-.53-.53 4.085-4.067.53.53Z"/><path data-name="Path 2684" d="m461.455 239.17-.53-.53 4.085-4.067.53.53Z"/><path data-name="Path 2685" d="m469.034 246.784-.53-.53 4.085-4.067.53.53Z"/><path data-name="Path 2686" d="m472.36 250.123-.53-.53 4.085-4.065.53.53Z"/><path data-name="Path 2687" d="m479.939 257.737-.53-.53 4.085-4.067.53.53Z"/><path data-name="Path 2688" d="m483.263 261.08-.53-.53 4.085-4.067.53.53Z"/><path data-name="Path 2689" d="m490.845 268.694-.53-.53 4.085-4.067.53.53Z"/><path data-name="Path 2690" d="m494.173 272.034-.53-.53 4.085-4.065.53.53Z"/><path data-name="Path 2691" d="m501.752 279.648-.53-.53 4.085-4.067.53.53Z"/><path data-name="Path 2692" d="m505.078 282.99-.53-.53 4.085-4.067.53.53Z"/><path data-name="Path 2693" d="m512.748 290.696-.53-.53 4.085-4.067.53.53Z"/><path data-name="Path 2694" d="m516.076 294.038-.53-.53 4.085-4.067.53.53Z"/><path data-name="Path 2695" d="m523.7 301.695-.53-.53 4.085-4.067.53.53Z"/><path data-name="Path 2696" d="m527.027 305.037-.53-.53 4.085-4.067.53.53Z"/><path data-name="Path 2697" d="m534.828 312.876-.53-.53 4.085-4.067.53.53Z"/><path data-name="Path 2698" d="m538.155 316.219-.53-.53 4.085-4.067.53.53Z"/></g><path data-name="Path 2699" d="m440.067 224.557-.717-.722 7.521-7.485.717.722Z"/><path data-name="Path 2700" d="m451.018 235.56-.717-.722 7.521-7.485.717.722Z"/><path data-name="Path 2701" d="m461.973 246.561-.717-.722 7.518-7.485.717.722Z"/><path data-name="Path 2702" d="m472.924 257.563-.717-.722 7.521-7.485.717.722Z"/><path data-name="Path 2703" d="m483.876 268.565-.717-.722 7.521-7.488.717.722Z"/><path data-name="Path 2704" d="m494.826 279.567-.717-.722 7.521-7.488.717.722Z"/><path data-name="Path 2705" d="m505.781 290.569-.717-.722 7.521-7.488.717.722Z"/><path data-name="Path 2706" d="m516.732 301.571-.717-.722 7.521-7.488.717.722Z"/><path data-name="Path 2707" d="m527.684 312.57-.717-.722 7.521-7.485.717.722Z"/><path data-name="Path 2708" d="m538.638 323.572-.717-.722 7.518-7.485.717.722Z"/></g><path data-name="Path 2709" d="M407.543 420.848c0-1.017.013-4.206.028-9.705l-6.238-.018.038-13.191-74-.214 56.258-55.934a7.29 7.29 0 0 0 .391-1.914l.091-31.436a7.135 7.135 0 0 0-.191-.962L270.286 420.451Z" transform="translate(42.62 -92.057)" fill="#9e4435" opacity=".3" style="mix-blend-mode:multiply;isolation:isolate"/><g data-name="Group 166" fill="#9e4435"><path data-name="Path 2710" d="m313.766 391.324 2.723.008 64.844-64.47-1.358-1.366Z" transform="translate(54.833 -86.995)" opacity=".3" style="mix-blend-mode:multiply;isolation:isolate"/><path data-name="Path 2711" d="m393.677 299.9-.965.96L513.1 421.951l-241.486-.7-1.333 1.325 246.07.711Z" transform="translate(42.62 -94.185)" opacity=".3" style="mix-blend-mode:multiply;isolation:isolate"/></g><path data-name="Rectangle 40" transform="rotate(.166 -105382.653 148176.513)" fill="#fff7e6" opacity=".5" style="mix-blend-mode:screen;isolation:isolate" d="M0 0h73.27v1.755H0z"/></g><g data-name="Group 172" transform="translate(37.924 17.957)"><g data-name="Group 169"><path data-name="Rectangle 41" transform="rotate(14.578 -1147.795 208.096)" fill="url(#d)" d="M0 0h3.297v8.791H0z"/><path data-name="Rectangle 42" transform="rotate(14.578 -1148.605 214.441)" fill="#463332" opacity=".3" style="mix-blend-mode:multiply;isolation:isolate" d="M0 0h1.673v8.791H0z"/><path data-name="Path 2712" d="m80.964 396.871-22.164-.064a3.2 3.2 0 0 1-3.2-3.214 3.2 3.2 0 0 1 3.214-3.2l22.161.064a3.2 3.2 0 0 1 3.2 3.214 3.2 3.2 0 0 1-3.211 3.2Z" transform="translate(-55.607 -86.721)" fill="url(#y)"/><path data-name="Path 2713" d="M69.683 388.445a5.677 5.677 0 0 1-4.066-6.923l1.218-4.688a5.678 5.678 0 0 1 6.925-4.066 5.677 5.677 0 0 1 4.066 6.923l-1.219 4.688a5.677 5.677 0 0 1-6.924 4.066Z" transform="translate(-52.847 -91.725)" fill="url(#z)"/><path data-name="Path 2714" d="M73.7 372.764a5.627 5.627 0 0 0-2.137-.118 10.607 10.607 0 0 1-2.573 1.076 5.575 5.575 0 0 0-2.215 3.109l-1.113 4.269a9.661 9.661 0 0 0 7.76 3.4 5.607 5.607 0 0 1-6.153 2.584 5.542 5.542 0 0 0 2.35 1.355 5.677 5.677 0 0 0 6.923-4.066l1.219-4.688a5.679 5.679 0 0 0-4.061-6.921Z" transform="translate(-52.783 -91.721)" fill="#463332" opacity=".3" style="mix-blend-mode:multiply;isolation:isolate"/><path data-name="Path 2715" d="M71.74 431.422a10.559 10.559 0 0 1-7.561-12.877l57.466-220.981 20.438 5.316-57.467 220.981a10.558 10.558 0 0 1-12.876 7.561Z" transform="translate(-53.295 -140.887)" fill="url(#A)"/><path data-name="Path 2716" d="m142.081 202.881-20.437-5.316-2.18 8.381a23.449 23.449 0 0 0 9.609 9.084L77.468 413.473a10.559 10.559 0 0 1-12.877 7.561c-.259-.067-.488-.187-.738-.273a10.555 10.555 0 0 0 20.761 3.1l53.644-206.281Z" transform="translate(-53.293 -140.887)" fill="#9e4435" opacity=".3" style="mix-blend-mode:multiply;isolation:isolate"/><path data-name="Path 2717" d="m77.363 390.453-8.856-.026a3.2 3.2 0 0 1-.018 6.41l8.856.026a3.2 3.2 0 0 0 .018-6.41Z" transform="translate(-51.988 -86.712)" fill="#463332" opacity=".3" style="mix-blend-mode:multiply;isolation:isolate"/><path data-name="Path 2718" d="m80.97 394.232-22.161-.064a3.182 3.182 0 0 1-2.979-2.125 3.143 3.143 0 0 0-.223 1.087 3.2 3.2 0 0 0 3.2 3.214l22.161.064a3.2 3.2 0 0 0 3.214-3.2 3.151 3.151 0 0 0-.216-1.089 3.181 3.181 0 0 1-2.996 2.113Z" transform="translate(-55.607 -86.259)" fill="#463332" opacity=".3" style="mix-blend-mode:multiply;isolation:isolate"/><g data-name="Group 168" opacity=".3" style="mix-blend-mode:screen;isolation:isolate" fill="#fff7e6"><path data-name="Path 2719" d="M2.165 305.111c-.4-1.218 7.127-.921 7.395-.281.417.998-7.043 1.348-7.395.281Z"/><path data-name="Path 2720" d="M10.514 305.11c-.137-.879 2.47-.672 2.562-.211.142.717-2.443.976-2.562.211Z"/></g></g><g data-name="Group 170"><path data-name="Path 2721" d="M186.612 394.715a10.541 10.541 0 0 1-13.029-7.245l-2.467-8.647a10.54 10.54 0 0 1 7.244-13.023 10.541 10.541 0 0 1 13.028 7.243l2.467 8.649a10.541 10.541 0 0 1-7.243 13.023Z" transform="translate(-23.275 -93.745)" fill="url(#B)"/><path data-name="Path 2722" d="M187.358 398.862a7.754 7.754 0 0 1-9.584-5.33l-1.816-6.361a7.754 7.754 0 0 1 5.33-9.584 7.754 7.754 0 0 1 9.584 5.329l1.815 6.362a7.754 7.754 0 0 1-5.329 9.584Z" transform="translate(-21.884 -90.403)" fill="url(#C)"/><path data-name="Path 2723" d="M198.235 434.079a10.56 10.56 0 0 1-13.051-7.258l-63.8-223.614 20.307-5.794 63.8 223.614a10.56 10.56 0 0 1-7.256 13.052Z" transform="translate(-37.13 -140.929)" fill="url(#D)"/><path data-name="Path 2724" d="m205.492 421.028-61.455-215.394-2.345-8.22-20.307 5.794 4.1 14.368a23.294 23.294 0 0 0 11.136-3.9l57.788 202.538a10.558 10.558 0 0 1-7.258 13.05c-.261.076-.524.087-.786.141a10.533 10.533 0 0 0 19.129-8.375Z" transform="translate(-37.13 -140.929)" fill="#9e4435" opacity=".3" style="mix-blend-mode:multiply;isolation:isolate"/></g><path data-name="Path 2725" d="m131.586 191.105-13.873-.041.09-30.831a6.937 6.937 0 0 1 6.957-6.917 6.938 6.938 0 0 1 6.917 6.958Z" transform="translate(-38.162 -153.316)" fill="url(#E)"/><path data-name="Path 2726" d="M124.759 153.316a6.686 6.686 0 0 0-1.162.231 6.866 6.866 0 0 1 3.7 6.05l-.038 12.959a19.412 19.412 0 0 0-2.55-.24 23.276 23.276 0 0 0-6.94 1.14l-.049 16.945v.663l13.875.041.05-17.61.038-13.221a6.938 6.938 0 0 0-6.924-6.958Z" transform="translate(-38.162 -153.316)" fill="#463332" opacity=".3" style="mix-blend-mode:multiply;isolation:isolate"/><circle data-name="Ellipse 22" cx="23.521" cy="23.521" r="23.521" transform="rotate(-45 83.581 -40.611)" fill="url(#F)"/><ellipse data-name="Ellipse 23" cx="13.356" cy="13.489" rx="13.356" ry="13.489" transform="rotate(-89.827 66.052 -6.251)" fill="#9e4435" opacity=".3" style="mix-blend-mode:multiply;isolation:isolate"/><circle data-name="Ellipse 24" cx="12.658" cy="12.658" r="12.658" transform="rotate(-45 91.263 -59.156)" fill="url(#G)"/><path data-name="Path 2727" d="M132.122 172.12a21.974 21.974 0 1 1-27.081 26.927 23.484 23.484 0 1 0 27.081-26.927Z" transform="translate(-41.721 -148.034)" fill="#9e4435" opacity=".3" style="mix-blend-mode:multiply;isolation:isolate"/><g data-name="Group 171" opacity=".3" style="mix-blend-mode:screen;isolation:isolate" fill="#fff7e6"><path data-name="Path 2728" d="M86.905 38.332c4.737 3.966-5.746 9.363-8.31 7.325-3.977-3.16 4.18-10.782 8.31-7.325Z"/><path data-name="Path 2729" d="M78.584 47.747c3.725-.245 2.4 4.882.61 4.947-2.776.101-3.529-4.756-.61-4.947Z"/></g><path data-name="Path 2730" d="M123.618 154.7c3.27 1.82-2.225 6.041-3.981 5.12-2.725-1.427 1.128-6.704 3.981-5.12Z" transform="translate(-37.882 -153.009)" fill="#fff7e6" opacity=".3" style="mix-blend-mode:screen;isolation:isolate"/><path data-name="Path 2731" d="M125.92 180.288c-.154 0-.3.038-.448.044a11.745 11.745 0 1 1-11.85 9.6 12.639 12.639 0 1 0 12.3-9.646Z" transform="translate(-39.422 -145.74)" fill="#463332" opacity=".3" style="mix-blend-mode:multiply;isolation:isolate"/></g><g data-name="Group 176"><path data-name="Path 2732" d="m274.68 306.473-116.265-.337-52.69 114.546 114.032.329 54.629-110.648a5.289 5.289 0 0 0 .294-3.89Z" transform="translate(-3.605 -92.433)" fill="url(#H)"/><path data-name="Path 2733" d="m274.68 306.473-116.265-.337-52.69 114.546 114.032.329 54.629-110.648a5.289 5.289 0 0 0 .294-3.89Z" transform="translate(-3.605 -92.433)" fill="#60578f" opacity=".5" style="mix-blend-mode:multiply;isolation:isolate"/><path data-name="Path 2734" d="m260.37 317.626 3.587-7.263a5.289 5.289 0 0 0 .293-3.89l-116.265-.337-5.129 11.15Z" transform="translate(6.825 -92.433)" fill="#60578f" opacity=".3" style="mix-blend-mode:multiply;isolation:isolate"/><g data-name="Group 173"><path data-name="Path 2735" d="m151.97 309.114 116.265.337a5.28 5.28 0 0 0-2.717-3.257l-19.88-9.816a9.12 9.12 0 0 0-1.934-.514c-.113-.009-.219 0-.33 0l-114.638-.332-.061 21.331 19.7.058Z" transform="translate(2.841 -95.411)" fill="url(#I)"/></g><g data-name="Group 174" opacity=".3" style="mix-blend-mode:multiply;isolation:isolate"><path data-name="Path 2736" d="m154.811 213.703 116.265.337a5.28 5.28 0 0 0-2.717-3.257l-19.88-9.816a4.367 4.367 0 0 0-2.265-.514l-114.638-.332Z" fill="#60578f"/></g><path data-name="Path 2737" d="m172.613 305.925-19.88-9.816a4.364 4.364 0 0 0-2.265-.514l-10.9-.032a4.373 4.373 0 0 1 2.265.515l19.88 9.814a5.283 5.283 0 0 1 2.717 3.257l10.9.032a5.28 5.28 0 0 0-2.717-3.256Z" transform="translate(5.902 -95.403)" fill="#60578f" opacity=".3" style="mix-blend-mode:multiply;isolation:isolate"/><path data-name="Path 2738" d="m235.283 306.106-19.883-9.814a4.374 4.374 0 0 0-2.266-.515l-10.9-.031a4.356 4.356 0 0 1 2.266.514l19.878 9.814a5.288 5.288 0 0 1 2.718 3.259l10.9.031a5.285 5.285 0 0 0-2.713-3.258Z" transform="translate(23.506 -95.352)" fill="#60578f" opacity=".3" style="mix-blend-mode:multiply;isolation:isolate"/><path data-name="Path 2739" d="m108.421 417.691-18.652-9.208-1.634 3.311-5.4-2.665 54.628-110.648a5.337 5.337 0 0 1 7.149-2.423l19.88 9.814a5.338 5.338 0 0 1 2.422 7.149l-54.63 110.647-5.4-2.666Z" transform="translate(-10.063 -95.419)" fill="url(#J)"/><path data-name="Rectangle 43" d="M148.509 220.69 98.358 322.27l-18.65-9.208 50.15-101.58a2.639 2.639 0 0 1 3.534-1.198l13.919 6.872a2.639 2.639 0 0 1 1.198 3.534Z" fill="#ceb6aa"/><path data-name="Rectangle 44" fill="#ceb6aa" d="m79.706 313.061 49.874-101.018 18.651 9.208L98.358 322.27z"/><path data-name="Path 2740" d="m134.28 210.272 12.505 6.174a3.428 3.428 0 0 1 1.556 4.591L98.358 322.271l-18.651-9.21 49.979-101.234a3.428 3.428 0 0 1 4.594-1.555Z" fill="#ffe6d6"/><path data-name="Path 2741" d="M132.121 219.05a3.436 3.436 0 0 1 4.6-1.559l10.747 5.307.87-1.761a3.428 3.428 0 0 0-1.556-4.591l-12.502-6.174a3.426 3.426 0 0 0-4.589 1.555L79.707 313.061l4.825 2.382Z" fill="#ceb6aa"/><g data-name="Group 175" fill="#ceb6aa"><path data-name="Path 2742" d="m140.478 219.026-6.478 13.8-14.611 30.178-15.074 29.95-7.017 13.533 6.477-13.8c3.985-8.23 9.3-19.2 14.612-30.177l15.074-29.95Z"/><path data-name="Path 2743" d="M101.121 287.614s-.648 1.679-1.7 4.157-2.593 5.714-4.144 8.944c-1.62 3.2-3.255 6.388-4.582 8.729s-2.265 3.879-2.265 3.879.646-1.679 1.7-4.156 2.593-5.714 4.145-8.945c1.622-3.2 3.256-6.387 4.582-8.729s2.264-3.879 2.264-3.879Z"/><path data-name="Path 2744" d="m139.528 230.692-4.857 10.544c-2.946 6.311-7.008 14.66-11.082 23-4.144 8.308-8.3 16.609-11.522 22.786l-5.419 10.266 4.856-10.546c2.946-6.311 7.008-14.659 11.085-23 4.144-8.308 8.3-16.608 11.522-22.785Z"/></g></g><g data-name="Group 178"><path data-name="Path 2745" d="m161.352 339.78.085-29.5-5.236-.014.026-8.54 240.719.7a7.57 7.57 0 0 1 7.547 7.591l-.091 31.436A7.569 7.569 0 0 1 396.81 349l-240.719-.7.024-8.537Z" transform="translate(10.543 -93.67)" fill="url(#g)"/><path data-name="Path 2746" d="m171.897 246.106 225.329.651a4.793 4.793 0 0 0 4.806-4.78l.058-19.909a4.793 4.793 0 0 0-4.779-4.807l-225.328-.651Z" fill="#ceb6aa"/><path data-name="Rectangle 45" fill="#ceb6aa" d="m171.897 246.11.085-29.496 120.506.35-.086 29.495z"/><path data-name="Rectangle 46" fill="#ffe6d6" d="m171.897 246.11.085-29.496 120.506.35-.086 29.495z"/><g data-name="Group 177" fill="#ceb6aa"><path data-name="Path 2747" d="m286.42 235.185-14.858.4c-8.915.19-20.8.232-32.686.252-11.885-.088-23.771-.2-32.685-.439l-14.856-.489 14.858-.4c8.915-.191 20.8-.231 32.686-.25 11.885.088 23.771.2 32.685.441Z"/><path data-name="Path 2748" d="M217.746 228.001s-2.541.222-6.353.425-8.893.266-13.976.306c-5.081-.068-10.163-.158-13.973-.386-3.811-.2-6.351-.464-6.351-.464s2.541-.247 6.353-.428c3.812-.2 8.895-.265 13.976-.3 5.081.07 10.163.161 13.973.388s6.351.459 6.351.459Z"/><path data-name="Path 2749" d="M270.975 241.252s-3.881.219-9.7.416-13.585.252-21.347.286c-7.761-.077-15.523-.174-21.344-.407-5.822-.208-9.7-.474-9.7-.474s3.881-.245 9.7-.418c5.822-.2 13.584-.252 21.346-.284 7.762.078 15.523.177 21.345.409s9.7.472 9.7.472Z"/></g><path data-name="Rectangle 47" fill="#ceb6aa" d="m171.963 223.307.02-6.695 120.505.351-.02 6.695z"/><path data-name="Path 2750" d="m368.264 302.343-109.933-.318-.131 46.575 109.933.318a7.569 7.569 0 0 0 7.591-7.546l.091-31.436a7.57 7.57 0 0 0-7.551-7.593Z" transform="translate(39.224 -93.587)" fill="url(#K)"/><path data-name="Path 2751" d="m368.055 302.342-108.981-.315a7.567 7.567 0 0 1 7.546 7.589l-.091 31.437a7.567 7.567 0 0 1-7.589 7.546l108.981.315a7.567 7.567 0 0 0 7.589-7.546l.091-31.437a7.567 7.567 0 0 0-7.546-7.589Z" transform="translate(39.433 -93.587)" fill="#398191" opacity=".3" style="mix-blend-mode:multiply;isolation:isolate"/><path data-name="Path 2752" d="m288.291 341.116.091-31.436a7.57 7.57 0 0 0-7.546-7.591l-7.443-.02a7.567 7.567 0 0 1 7.546 7.589l-.091 31.436a7.567 7.567 0 0 1-7.589 7.546l7.442.022a7.569 7.569 0 0 0 7.59-7.546Z" transform="translate(43.455 -93.575)" fill="#398191" opacity=".3" style="mix-blend-mode:multiply;isolation:isolate"/><path data-name="Path 2753" d="m343.7 341.276.091-31.436a7.567 7.567 0 0 0-7.546-7.589l-7.443-.022a7.567 7.567 0 0 1 7.546 7.589l-.091 31.437a7.566 7.566 0 0 1-7.589 7.544l7.443.022a7.567 7.567 0 0 0 7.589-7.545Z" transform="translate(59.019 -93.53)" fill="#398191" opacity=".3" style="mix-blend-mode:multiply;isolation:isolate"/><path data-name="Path 2754" d="M266.532 331.7v1.025a7.567 7.567 0 0 1-7.589 7.546l108.981.315a7.567 7.567 0 0 0 7.589-7.546v-1.023Z" transform="translate(39.433 -85.253)" fill="#398191" opacity=".3" style="mix-blend-mode:multiply;isolation:isolate"/></g><g data-name="Group 180"><path data-name="Path 2755" d="m168.552 302.726.053-18.085-3.21-.009.015-5.236 220.254.637a4.639 4.639 0 0 1 4.627 4.654l-.055 19.275a4.641 4.641 0 0 1-4.653 4.628l-220.256-.638.015-5.234Z" transform="translate(13.137 -99.944)" fill="url(#L)"/><path data-name="Rectangle 48" d="m393.155 203.393-211.463-.609.052-18.085 211.463.61a2.294 2.294 0 0 1 2.287 2.3l-.038 13.497a2.294 2.294 0 0 1-2.301 2.287Z" fill="#ceb6aa"/><path data-name="Rectangle 49" fill="#ceb6aa" d="m181.692 202.782.052-18.085 100.388.29-.052 18.086z"/><path data-name="Rectangle 50" fill="#ffe6d6" d="m181.692 202.782.052-18.085 100.388.29-.052 18.086z"/><g data-name="Group 179" fill="#ceb6aa"><path data-name="Path 2756" d="m278.411 196.16-13.253.227-29.152.14-29.149-.307-13.248-.3 13.251-.223 29.151-.14 29.149.309Z"/><path data-name="Path 2757" d="M209.803 191.678s-1.558.149-3.9.25l-8.569.2c-6.232.023-12.462-.52-12.462-.52s6.233-.507 12.464-.448l8.568.248c2.339.114 3.899.27 3.899.27Z"/><path data-name="Path 2758" d="m268.94 199.881-10.09.232-22.2.159c-16.143-.006-32.285-.578-32.285-.578s16.144-.478 32.288-.391l22.2.287Z"/></g><path data-name="Rectangle 51" fill="#ceb6aa" d="m181.732 188.801.012-4.105 100.387.29-.011 4.106z"/><path data-name="Path 2759" d="m362.267 279.965-113.567-.328-.083 28.555 113.564.328a4.64 4.64 0 0 0 4.654-4.627l.055-19.275a4.639 4.639 0 0 0-4.623-4.653Z" transform="translate(36.534 -99.876)" fill="url(#M)"/><path data-name="Path 2760" d="m362.139 279.965-112.98-.327a4.64 4.64 0 0 1 4.627 4.654l-.055 19.275a4.64 4.64 0 0 1-4.654 4.627l112.98.327a4.64 4.64 0 0 0 4.654-4.627l.055-19.275a4.639 4.639 0 0 0-4.627-4.654Z" transform="translate(36.662 -99.876)" fill="#9e4435" opacity=".3" style="mix-blend-mode:multiply;isolation:isolate"/><path data-name="Path 2761" d="m267.073 303.606.056-19.275a4.639 4.639 0 0 0-4.627-4.654l-4.564-.014a4.64 4.64 0 0 1 4.627 4.654l-.056 19.276a4.64 4.64 0 0 1-4.654 4.627l4.564.013a4.64 4.64 0 0 0 4.654-4.627Z" transform="translate(39.128 -99.869)" fill="#9e4435" opacity=".3" style="mix-blend-mode:multiply;isolation:isolate"/><path data-name="Path 2762" d="m276.723 303.634.055-19.275a4.639 4.639 0 0 0-4.627-4.654l-4.564-.014a4.642 4.642 0 0 1 4.628 4.653l-.056 19.276a4.641 4.641 0 0 1-4.654 4.627l4.564.013a4.641 4.641 0 0 0 4.654-4.626Z" transform="translate(41.839 -99.861)" fill="#9e4435" opacity=".3" style="mix-blend-mode:multiply;isolation:isolate"/><path data-name="Path 2763" d="m326.371 303.776.056-19.275a4.64 4.64 0 0 0-4.627-4.654l-4.564-.013a4.639 4.639 0 0 1 4.627 4.653l-.055 19.275a4.64 4.64 0 0 1-4.653 4.627l4.563.013a4.639 4.639 0 0 0 4.653-4.626Z" transform="translate(55.785 -99.821)" fill="#9e4435" opacity=".3" style="mix-blend-mode:multiply;isolation:isolate"/><path data-name="Path 2764" d="m336.021 303.8.055-19.275a4.639 4.639 0 0 0-4.627-4.654l-4.563-.013a4.64 4.64 0 0 1 4.627 4.654l-.056 19.275a4.639 4.639 0 0 1-4.654 4.627l4.564.013a4.639 4.639 0 0 0 4.654-4.627Z" transform="translate(58.496 -99.813)" fill="#9e4435" opacity=".3" style="mix-blend-mode:multiply;isolation:isolate"/><path data-name="Path 2765" d="M253.732 297.829v.628a4.64 4.64 0 0 1-4.654 4.627l112.98.327a4.64 4.64 0 0 0 4.654-4.627v-.628Z" transform="translate(36.662 -94.766)" fill="#9e4435" opacity=".3" style="mix-blend-mode:multiply;isolation:isolate"/></g><g data-name="Group 183"><path data-name="Path 2766" d="m426.966 402.649.158-54.14 6.237.018c.021-6.732.029-10.173.029-10.173l-286.788-.83a9.017 9.017 0 0 0-9.043 8.991l-.163 56.452a9.016 9.016 0 0 0 8.989 9.042l286.789.829.03-10.17Z" transform="translate(5.441 -84.73)" fill="url(#N)"/><path data-name="Rectangle 52" d="M4.458 0h269.705v54.14H4.458A4.458 4.458 0 0 1 0 49.682V4.458A4.458 4.458 0 0 1 4.458 0Z" transform="translate(150.769 262.963)" fill="#a0335d" opacity=".3" style="mix-blend-mode:multiply;isolation:isolate"/><path data-name="Path 2767" d="m432.404 317.918-268.452-.777a5.71 5.71 0 0 1-5.694-5.727l.123-42.719a5.71 5.71 0 0 1 5.727-5.694l268.452.778Z" fill="#ffe6d6"/><path data-name="Path 2768" d="m400.59 348.438.028-10.173-146.341-.424-.215 74.484 146.341.423.029-10.17-6.238-.018.158-54.14Z" transform="translate(38.212 -84.641)" fill="#a0335d" opacity=".3" style="mix-blend-mode:multiply;isolation:isolate"/><path data-name="Rectangle 53" fill="#ceb6aa" d="m288.835 317.503.157-54.139 143.567.416-.157 54.139z"/><path data-name="Rectangle 54" fill="#ceb6aa" d="m288.835 317.503.157-54.139 143.567.416-.157 54.139z"/><path data-name="Path 2769" d="m293.845 263.378-129.74-.377a5.71 5.71 0 0 0-5.727 5.694l-.023 8.091a5.71 5.71 0 0 1 5.727-5.694l129.74.375Z" fill="#ceb6aa"/><g data-name="Group 181" fill="#ceb6aa"><path data-name="Path 2770" d="M168.036 278.273s3.788-.345 9.466-.6c2.84-.083 6.153-.278 9.7-.31l11.121-.115 11.119.178c3.549.046 6.862.266 9.7.365 5.678.284 9.462.652 9.462.652s-3.786.347-9.466.6c-2.84.082-6.152.283-9.7.309l-11.121.114-11.121-.179c-3.548-.053-6.861-.268-9.7-.366-5.675-.287-9.46-.648-9.46-.648Z"/><path data-name="Path 2771" d="M185.984 307.543s5.55-.306 13.873-.583l14.219-.3 16.3-.1 16.3.192c5.2.052 10.056.277 14.217.379 8.322.323 13.87.665 13.87.665s-5.549.31-13.872.584c-4.163.079-9.018.275-14.219.3l-16.3.1-16.3-.195-14.218-.379a705.054 705.054 0 0 1-13.87-.663Z"/><path data-name="Path 2772" d="M177.002 288.378s5.549-.306 13.873-.581l14.219-.3 16.3-.1 16.3.193c5.2.062 10.055.275 14.217.379 8.322.323 13.87.664 13.87.664s-5.55.31-13.873.585c-4.162.078-9.018.275-14.219.3l-16.3.1-16.3-.195-14.217-.38c-8.322-.327-13.87-.665-13.87-.665Z"/></g><g data-name="Group 182" fill="#b29b93"><path data-name="Path 2773" d="M296.052 300.394s7.082-.38 17.7-.652l18.144-.331 20.8-.106 20.8.224c6.638.061 12.832.316 18.143.434 10.619.333 17.7.757 17.7.757s-7.082.383-17.7.655c-5.309.087-11.505.307-18.143.329l-20.8.105-20.8-.227-18.143-.435c-10.621-.333-17.701-.753-17.701-.753Z"/><path data-name="Path 2774" d="M377.962 277.03s3.027-.254 7.569-.438c4.541-.21 10.6-.272 16.65-.311 6.054.073 12.107.168 16.648.406 4.54.21 7.566.483 7.566.483s-3.028.255-7.569.439c-4.542.211-10.6.272-16.65.309-6.055-.074-12.108-.17-16.648-.407-4.541-.21-7.566-.481-7.566-.481Z"/><path data-name="Path 2775" d="M318.657 309.867s4.625-.31 11.561-.534c6.936-.256 16.184-.327 25.432-.37 9.247.095 18.494.218 25.428.515 6.935.264 11.559.6 11.559.6s-4.625.313-11.561.537c-6.936.257-16.184.327-25.432.369-9.247-.1-18.495-.222-25.43-.517-6.934-.263-11.557-.6-11.557-.6Z"/><path data-name="Path 2776" d="M320.851 286.482s4.625-.31 11.561-.534c6.936-.256 16.184-.327 25.432-.37 9.247.095 18.494.218 25.428.515 6.935.264 11.558.6 11.558.6s-4.624.314-11.56.537c-6.937.258-16.184.327-25.432.369-9.247-.1-18.495-.222-25.43-.518-6.934-.262-11.557-.599-11.557-.599Z"/></g><path data-name="Rectangle 55" fill="#b29b93" d="m288.969 271.34.023-7.976 143.568.416-.024 7.976z"/></g><g data-name="Group 199"><path data-name="Path 2777" d="M278.179 192.054c-12.81 7.863-14.935 19.493-18.574 37.771-2.917 14.652-3.542 28.433-.095 34.218 6.465 10.848 40.2 8.459 51.327 8.1l3.376-10.127s-18.113-7.616-30.972-14.308c-.058-.031 5.878-50.178-5.062-55.654Z" transform="translate(38.934 -124.478)" fill="url(#O)"/><path data-name="Path 2778" d="M278.179 192.054c-12.81 7.863-14.935 19.493-18.574 37.771-2.917 14.652-3.542 28.433-.095 34.218 6.465 10.848 40.2 8.459 51.327 8.1l3.376-10.127s-18.113-7.616-30.972-14.308c-.058-.031 5.878-50.178-5.062-55.654Z" transform="translate(38.934 -124.478)" fill="#60578f" opacity=".4" style="mix-blend-mode:multiply;isolation:isolate"/><g data-name="Group 185"><path data-name="Path 2779" d="m306.5 315.072-7.4 4.195c.952 5.092 1.91 13.617 2.568 18.9.564 3.845 4.856 1.286 4.887-.539-.335-3.166-.277-15.881-.055-22.556Z" transform="translate(50.716 -89.923)" fill="url(#h)"/><g data-name="Group 184"><path data-name="Path 2780" d="m301.185 333.839-.583 5.227 17.037.047c.146-1.514-2.584-2.112-6.014-3.332a16.644 16.644 0 0 1-5.485-3.1c-1.94 3.959-3.832 4.434-4.955 1.158Z" transform="translate(51.136 -84.977)" fill="url(#P)"/><path data-name="Path 2781" d="m368.781 253.601-17.091-.048-.03.928 17.257.048Z" fill="#d2bcad"/><path data-name="Path 2782" d="M301.265 333.273s-.579-.092-.644.234c-.032.161-.056 5.077-.056 5.077l9.435.026-.138-3.1a8.942 8.942 0 0 0-1.515-1.205c-1.067-.712-1.15-1.7-1.8-1.816s-2.6 2.249-3.639 2.3-1.643-1.516-1.643-1.516Z" transform="translate(51.126 -85.032)" fill="url(#Q)"/></g></g><path data-name="Path 2783" d="M242.725 251.054c-.024 8.355-.4 26.1 4.072 36.732l81.614.236s3.6-23.212-2.81-28.373-44.953-8.807-44.953-8.807Z" transform="translate(34.874 -107.965)" fill="url(#R)"/><path data-name="Path 2784" d="M312.717 258.614c8.147 6.664-.175 60.666-.735 92.8l-13.753-.04s-8.321-44.112-8.036-65.122c.297-21.852 14.378-34.303 22.524-27.638Z" transform="translate(48.21 -106.287)" fill="url(#S)"/><path data-name="Path 2785" d="M298.4 274.718c-2.385-2.6-5.18-1.41-12.357-1.431l-.444 8.412 5.888.017c-.281 21.018 8.035 65.1 8.035 65.1l4.575.013c-5.783-34.55-3.327-69.523-5.697-72.111Z" transform="translate(46.921 -101.731)" fill="#463332" opacity=".2" style="mix-blend-mode:multiply;isolation:isolate"/><path data-name="Path 2786" d="M318.58 262.976a8.174 8.174 0 0 0-2.194-3.5c-4.68-3.767-26.431-6.72-37.863-8.043-.827 8.355-2.147 24.952-3.01 36.289l18.8.055s1.137-6.372 2.942-12.99c4.328-15.851 16.874-15.725 21.325-11.811Z" transform="translate(44.088 -107.797)" fill="#463332" opacity=".2" style="mix-blend-mode:multiply;isolation:isolate"/><path data-name="Path 2787" d="M224.734 251a79.881 79.881 0 0 0 5.311 36.743l76.739.222s5.226-23.056-1.186-28.217-42.941-8.959-42.941-8.959Z" transform="translate(29.726 -107.98)" fill="url(#T)"/><g data-name="Group 187"><path data-name="Path 2788" d="m281.772 315-7.641 4.195c.46 5.09.6 13.613.746 18.892.193 3.844 4.734 1.286 4.94-.539-.036-3.162 1.083-15.875 1.955-22.548Z" transform="translate(43.701 -89.943)" fill="url(#U)"/><g data-name="Group 186"><path data-name="Path 2789" d="m274.85 333.762-1.086 5.226 17.037.047c.292-1.514-2.381-2.112-5.695-3.33a14.632 14.632 0 0 1-5.186-3.1c-2.32 3.957-4.262 4.433-5.07 1.157Z" transform="translate(43.598 -84.998)" fill="url(#V)"/><path data-name="Path 2790" d="m334.456 253.502-17.092-.048-.12.927 17.258.048Z" fill="#d2bcad"/><path data-name="Path 2791" d="M274.979 333.2s-.57-.093-.667.234c-.047.161-.546 5.076-.546 5.076l9.435.026.161-3.1a7.746 7.746 0 0 0-1.4-1.205c-1-.712-.986-1.7-1.627-1.815s-2.818 2.249-3.861 2.3-1.495-1.516-1.495-1.516Z" transform="translate(43.598 -85.053)" fill="url(#W)"/></g></g><path data-name="Path 2792" d="M294.025 258.64c7.6 6.664-6.1 60.545-10.111 92.672l-14.035-.041s-3.9-44.1-1.354-65.1c2.644-21.849 17.898-34.194 25.5-27.531Z" transform="translate(41.884 -106.282)" fill="url(#X)"/><path data-name="Path 2793" d="M254.466 185.761s-8.245-6.366-7.226-21.429c.976-14.432 3.9-17.395 9.267-19.151 4.014-1.314 11.889 7 11.889 7Z" transform="translate(36.122 -137.684)" fill="url(#j)"/><path data-name="Path 2794" d="M306.908 288.715c4.615-23.383-.154-28.02-1.335-28.968-6.412-5.161-42.941-8.959-42.941-8.959l-22.671.127-15.334 2.475c-.762 11.4 1.212 24.4 5.393 34.352l50.635.146c-2.536 21.016 1.356 65.08 1.356 65.08l5.033.014c-5.455-25.872 2.757-69.134-.187-71.7-6.366-5.549-41.475 3.184-41.44-9.411.028-9.6 16.579-11.709 32.655-11.414 15.721.29 32.041-3.179 28.836 28.258Z" transform="translate(29.75 -107.98)" fill="#463332" opacity=".25" style="mix-blend-mode:multiply;isolation:isolate"/><path data-name="Path 2795" d="M267.071 154.514s-7.215 3.351-13.791-.532c-2.956-1.746-2.413-4.545-1.018-7.085-2.724 2.4-4.344 6.886-5.021 16.912-1.02 15.063 7.226 21.429 7.226 21.429l12.47-30.06Z" transform="translate(36.122 -137.162)" fill="#491d17" opacity=".3" style="mix-blend-mode:multiply;isolation:isolate"/><path data-name="Path 2796" d="M236.254 191.24c7.7-7.22 27.256-4.65 32.954-3.748a56.627 56.627 0 0 1 18.645 6.178c3.54 1.842 4.742 14.766 2.313 27.518-2.239 11.752-8.107 22.225-8.809 30.361-1 11.567 3.256 17.432 3.256 17.432-28.129.421-48.032 12.683-60.43 7.475-.393-7.242-2.294-32.468-1.034-44.3 1.634-15.332 5.478-33.756 13.105-40.916Z" transform="translate(29.26 -126.093)" fill="url(#Y)"/><path data-name="Path 2797" d="M263 187.481a87.691 87.691 0 0 0-18.17-1.008 20.891 20.891 0 0 0 11.984 10.473c10.756 3.42 17.544-.149 20.072-5.466A55.921 55.921 0 0 0 263 187.481Z" transform="translate(35.47 -126.083)" fill="#60578f" opacity=".4" style="mix-blend-mode:multiply;isolation:isolate"/><path data-name="Path 2798" d="M281.357 245.061c.528-6.118 3.975-13.558 6.606-21.87-4.885 1.423-12.2 2.621-23.148 2.669a84.2 84.2 0 0 1-22.733-2.826c-1.661-.434-1.943-13.636-1.943-13.636s-13.873 7.945-15.7 6.794c-.517 3.2-.961 6.406-1.289 9.479-1.26 11.829.64 37.055 1.034 44.3 12.4 5.208 32.3-7.054 60.43-7.477-.001-.003-4.255-5.867-3.257-17.433Z" transform="translate(29.26 -119.606)" fill="#60578f" opacity=".4" style="mix-blend-mode:multiply;isolation:isolate"/><path data-name="Path 2799" d="M252.958 168.864s1.463 13.852-3.456 22.1c-1.143 2.1 14.556 4.817 21.016 3.489 0 0-1.292-1.59-.163-8.094.518-2.975-17.397-17.495-17.397-17.495Z" transform="translate(36.766 -130.992)" fill="url(#i)"/><path data-name="Path 2800" d="M271 189.316s1.451.657 3.032 1.246c0 0-2.222 6.242-11.7 5.14-11.394-1.324-15.272-9.37-15.272-9.37l4.623-.17Z" transform="translate(36.097 -126.133)" fill="url(#Z)"/><path data-name="Path 2801" d="M254.065 198.021a37.261 37.261 0 0 0 16.515-6.239 24.93 24.93 0 0 1 .445-5.421c.517-2.977-17.4-17.5-17.4-17.5s1.463 13.852-3.456 22.1l-3.11.225s1.611 3.743 7.006 6.835Z" transform="translate(36.097 -130.992)" fill="#ac6b53" opacity=".6" style="mix-blend-mode:multiply;isolation:isolate"/><g data-name="Group 188"><path data-name="Path 2802" d="M254.107 162.486c-3.435-1.33-6.093 2.9-5.455 5.923a6.935 6.935 0 0 0 6.279 5.384c1.482-1.399 1.322-9.867-.824-11.307Z" transform="translate(36.517 -132.855)" fill="url(#aa)"/><path data-name="Path 2803" d="M252.93 164.66c-1.868-.557-3.138 1.737-2.7 3.277a3.632 3.632 0 0 0 3.513 2.548c.292-.261-.006-5.392-.813-5.825Z" transform="translate(36.963 -132.197)" fill="#e48665" opacity=".5" style="mix-blend-mode:multiply;isolation:isolate"/><path data-name="Path 2804" d="M254.107 162.486c-3.435-1.33-6.093 2.9-5.455 5.923a6.935 6.935 0 0 0 6.279 5.384c1.482-1.399 1.322-9.867-.824-11.307Z" transform="translate(36.517 -132.855)" fill="#e48665" opacity=".3" style="mix-blend-mode:multiply;isolation:isolate"/></g><path data-name="Path 2805" d="M293.018 27.239c1.363-6.307 4.955-12.518 15.191-13.15 11.4-.7 17.533 5.426 17.643 12.894.036 2.44-.924 7.82-3.772 16.649-2.727 8.453-7.231 18.435-16.635 17.5-3.891-.386-14.37-4.15-13.932-19.819 0 .003-.708-3.809 1.505-14.074Z" fill="#ffa269"/><path data-name="Path 2806" d="M257.777 178.052a80.783 80.783 0 0 1 6.159-24.692l-5.928 2.186a19.186 19.186 0 0 0-2.894 7.04c-2.216 10.265-1.506 14.077-1.506 14.077-.438 15.669 10.041 19.434 13.932 19.819-4.994-1.659-10.727-6.965-9.763-18.43Z" transform="translate(37.905 -135.347)" fill="#e48665" opacity=".3" style="mix-blend-mode:multiply;isolation:isolate"/><path data-name="Path 2807" d="M304.457 34.119c-.534 1.116-.334 2.21.447 2.441s1.848-.484 2.382-1.6.334-2.21-.446-2.441-1.848.483-2.383 1.6Z" fill="#492a21"/><path data-name="Path 2808" d="M317.761 38.14c-.511 1.066-.371 2.1.313 2.3s1.651-.5 2.162-1.564.371-2.1-.313-2.3-1.651.497-2.162 1.564Z" fill="#492a21"/><path data-name="Path 2809" d="M268.906 179.362a3.138 3.138 0 0 0 1.026.369 5.338 5.338 0 0 0 2.806-.272 4.676 4.676 0 0 0 1.722-1.05 3.033 3.033 0 0 0 .944-2.443 3.4 3.4 0 0 0-.418-1.342 3.791 3.791 0 0 0-.813-1.043 3.551 3.551 0 0 0-2.4-.652c-.374-.02-.584-.32-.836-.945a2.546 2.546 0 0 1-.037-1.629 9.7 9.7 0 0 1 1.517-3.118 9.26 9.26 0 0 1 2.306-2.512.515.515 0 0 0 .154-.688.463.463 0 0 0-.61-.183l-.028.014a9.858 9.858 0 0 0-2.871 2.525 11.105 11.105 0 0 0-1.856 3.585 4.245 4.245 0 0 0 .029 2.578 2.658 2.658 0 0 0 2 1.974c.976.091 1.324.022 1.61.337a2.106 2.106 0 0 1 .456.643 2.028 2.028 0 0 1 .225.642c.173.8-.766 1.573-1.588 2a6.13 6.13 0 0 1-2.221.588 2.141 2.141 0 0 1-.851-.117.363.363 0 0 0-.473.225.394.394 0 0 0 .111.434Z" transform="translate(42.168 -132.413)" fill="#e48665" opacity=".5" style="mix-blend-mode:multiply;isolation:isolate"/><g data-name="Group 189"><path data-name="Path 2810" d="M274.927 162.24c-.621.98 1.313 2.121 2.976 3.821 1.679 1.716 2.2 3.052 2.847 2.593.544-.392 1.54-2.394-.989-5.268-1.645-1.872-3.912-2.604-4.834-1.146Z" transform="translate(43.891 -133.07)" fill="url(#ab)"/></g><g data-name="Group 190"><path data-name="Path 2811" d="M271.738 161.029c.038 1.167-2.774.921-5.738 1.356-2.992.439-4.538 1.3-4.944.544-.346-.638-.042-2.926 4.657-3.826 3.057-.585 5.967.189 6.025 1.926Z" transform="translate(39.998 -133.788)" fill="url(#ac)"/></g><path data-name="Path 2812" d="M270.314 151.194c-12.7 2.8-12.249 20.875-15.031 20.635-1.62-.141-2.131-4.461-1.545-7.767.779-4.392 2.79-10.973 6.83-13.414 1.607-.97 8.424-.272 9.746.546Z" transform="translate(37.906 -136.241)" fill="url(#ad)"/><g data-name="Group 191"><path data-name="Path 2813" d="M314.34 52.043a38.715 38.715 0 0 1-12.021-5.927s.77 5.275 4.189 7.156c4.121 2.27 7.832-1.229 7.832-1.229Z" fill="#492a21"/><path data-name="Path 2814" d="M311.86 51.843a37.666 37.666 0 0 1-8.5-4.365s.688 3.547 3.238 4.951a4.369 4.369 0 0 0 5.262-.586Z" fill="#fff4e9"/></g><path data-name="Path 2815" d="M256.826 154.049a29.584 29.584 0 0 0-3.088 9.237c-.587 3.306-.076 7.626 1.545 7.767 2.317.2 2.394-12.309 9.7-18.111a13.439 13.439 0 0 1-8.157 1.107Z" transform="translate(37.906 -135.465)" fill="#491d17" opacity=".3" style="mix-blend-mode:multiply;isolation:isolate"/><path data-name="Path 2816" d="M253.783 147.132c-.2-3.987 4.408-7.364 12.247-6.544 9.862 1.032 8.225 5.34 18.063 4.04 5.763-.762 4.192 8.346 9.331 7.565 8-1.216 6.326 5.572 3.789 5.631 0 0 .327-1.266-.794-1.4-2.872-.338-.71 9.767-8.892 12.733 0 0 1.478-11.153-7.352-13.976-7.867-2.514-13.256-.238-13.256-.238s-12.947-4.023-13.136-7.811Z" transform="translate(37.983 -138.969)" fill="url(#ae)"/><path data-name="Path 2817" d="M297.025 153.446c-2.289-1-5.189 1.879-8.377 1.57s-1.581-4.789-5.067-5.9-13.775 3.948-22.335 2.427c-6.276-1.114-6.762-5.664-6.159-8.631a5.024 5.024 0 0 0-1.278 3.3c-.68 5 8.863 7.949 13.111 8.043 0 0 5.389-2.276 13.256.238 8.832 2.822 7.352 13.976 7.352 13.976 8.182-2.967 6.02-13.072 8.892-12.733 1.121.133.794 1.4.794 1.4a2 2 0 0 0-.189-3.69Z" transform="translate(37.982 -138.281)" fill="#491d17" opacity=".3" style="mix-blend-mode:multiply;isolation:isolate"/><g data-name="Group 192"><path data-name="Path 2818" d="M260.56 254.147c-6.095.279-13.423-.215-13.423-.215l1.236-9.74s10.286 1.97 13.543 2.32-1.356 7.635-1.356 7.635Z" transform="translate(36.118 -109.833)" fill="url(#k)"/><path data-name="Path 2819" d="M276.03 252.326a.615.615 0 0 0 .544-.019c1.027-.666-.728-2.937-2.3-4.5a8.019 8.019 0 0 0-6.344-1.937 56.323 56.323 0 0 1-8.978.158s-3.184 6.321-1.193 7.664a35.389 35.389 0 0 0 5.837.546c2.348 0 3.763.234 4.531.838.86.674 2.179 2.6 3.221 1.955.589-.362-.655-2.353-1.864-3.493-.528-.5-1.2-1-1.83-1.491.122-.073.24-.17.361-.25a12.234 12.234 0 0 1 2.694 1.829c1.154 1.19 2.9 3.9 3.945 3.262.785-.483-.682-2.963-2.274-4.511-.716-.7-1.62-1.486-2.405-2.152.074-.072.146-.141.218-.214a24.509 24.509 0 0 1 2.73 1.844c.8.733 2.918 4.254 3.865 3.483.444-.364.169-1.712-.758-3.012Z" transform="translate(38.918 -109.375)" fill="url(#af)"/><path data-name="Path 2820" d="M269.743 253.969c-1.7-1.312-5.346-.785-8.93-1.692-3.054-.771-2.832-5.027-2.817-6.39-1.477-.246-3.242-.466-4.956-.83l-1.518 8.9c2.389.128 5.2.07 7.806-.05a35.394 35.394 0 0 0 5.837.546c2.349 0 3.763.234 4.531.838.839.658 2.116 2.475 3.146 1.96a36.8 36.8 0 0 0-3.099-3.282Z" transform="translate(37.35 -109.59)" fill="#c3694d" opacity=".4" style="mix-blend-mode:multiply;isolation:isolate"/><path data-name="Path 2821" d="M265.839 245.858a10.4 10.4 0 0 1 2.724.985c1.9 1.107 3.492 3.312 5.013 5.478a.615.615 0 0 0 .544-.019c1.027-.666-.728-2.937-2.3-4.5a7.833 7.833 0 0 0-5.981-1.944Z" transform="translate(41.371 -109.37)" fill="#c3694d" opacity=".2" style="mix-blend-mode:multiply;isolation:isolate"/></g><g data-name="Group 197"><path data-name="Path 2822" d="m333.375 257.1-61.173-.177a1.273 1.273 0 0 1-1.214-1.326v-.829a1.274 1.274 0 0 1 1.223-1.318l61.173.177a1.319 1.319 0 0 1 1.313 1.326v.829a1.32 1.32 0 0 1-1.322 1.318Z" transform="translate(42.818 -107.231)" fill="url(#ag)"/><path data-name="Path 2823" d="m333.125 264.951-60-.173c-1.046 0-2.061-.958-1.916-1.8l8.3-48.519a.987.987 0 0 1 1.072-.758l60 .173c1.047 0 2.061.958 1.916 1.8l-8.3 48.519a.986.986 0 0 1-1.072.758Z" transform="translate(42.877 -118.399)" fill="url(#ah)"/><path data-name="Path 2824" d="m334.2 264.954-60-.173c-1.046 0-2.061-.958-1.916-1.8l8.3-48.519a.987.987 0 0 1 1.072-.758l60 .173c1.046 0 2.061.959 1.916 1.8l-8.3 48.519a.984.984 0 0 1-1.072.758Z" transform="translate(43.18 -118.398)" fill="url(#l)"/><path data-name="Path 2825" d="M296.809 234.518c-.359 2.075 1.253 3.763 3.6 3.77a4.96 4.96 0 0 0 4.9-3.745c.359-2.075-1.254-3.763-3.6-3.77a4.961 4.961 0 0 0-4.9 3.745Z" transform="translate(50.057 -113.602)" fill="#a69b9b" opacity=".4" style="mix-blend-mode:multiply;isolation:isolate"/><path data-name="Path 2826" d="M272.778 249.97c-.145.847.87 1.8 1.918 1.8l60 .173a.988.988 0 0 0 1.063-.735l-.478 2.795a.987.987 0 0 1-1.072.758l-60-.173c-1.046 0-2.061-.958-1.916-1.8Z" transform="translate(43.18 -108.21)" fill="#a69b9b" opacity=".4" style="mix-blend-mode:multiply;isolation:isolate"/><path data-name="Path 2827" d="m273.778 263.9 68.107-48.473a.958.958 0 0 0-1.021-.711l-57.886-.167c-1.012 0-2 .915-1.864 1.733l-8.014 46.929a.867.867 0 0 0 .678.689Z" transform="translate(43.41 -118.159)" fill="#fff" opacity=".2" style="mix-blend-mode:screen;isolation:isolate"/><g data-name="Group 195"><g data-name="Group 193"><path data-name="Path 2828" d="m372.002 149.857-7.437-.024a5.947 5.947 0 0 0 .009-3.318l7.438.022a5.311 5.311 0 0 1-.01 3.32Z" fill="#a69b9b"/><path data-name="Path 2829" d="m372.298 149.858-7.438-.025a5.936 5.936 0 0 0 .01-3.317l7.437.022a5.311 5.311 0 0 1-.009 3.32Z" fill="#a69b9b"/><path data-name="Path 2830" d="M311 254.4a6.619 6.619 0 0 0-.149-.711l7.437.022a5.377 5.377 0 0 1 .169.711Z" transform="translate(54.016 -107.167)" fill="#fff" opacity=".4" style="mix-blend-mode:screen;isolation:isolate"/><path data-name="Path 2831" d="M318.5 255.512a5.722 5.722 0 0 1-.215 1.007l-7.438-.022a6.038 6.038 0 0 0 .192-1.007Z" transform="translate(54.014 -106.66)" fill="#a69b9b" opacity=".4" style="mix-blend-mode:multiply;isolation:isolate"/></g><g data-name="Group 194"><path data-name="Path 2832" d="m327.09 149.728-7.438-.022a5.948 5.948 0 0 0 .009-3.318l7.438.022a5.312 5.312 0 0 1-.009 3.318Z" fill="#a69b9b"/><path data-name="Path 2833" d="m327.385 149.728-7.437-.021a5.947 5.947 0 0 0 .009-3.317l7.437.022a5.307 5.307 0 0 1-.009 3.316Z" fill="#a69b9b"/><path data-name="Path 2834" d="M275.939 254.3a6.281 6.281 0 0 0-.149-.711l7.437.022a5.51 5.51 0 0 1 .17.711Z" transform="translate(44.167 -107.195)" fill="#fff" opacity=".4" style="mix-blend-mode:screen;isolation:isolate"/><path data-name="Path 2835" d="M283.435 255.411a5.707 5.707 0 0 1-.215 1.005l-7.437-.021a6.2 6.2 0 0 0 .191-1.007Z" transform="translate(44.165 -106.688)" fill="#a69b9b" opacity=".4" style="mix-blend-mode:multiply;isolation:isolate"/></g></g><path data-name="Path 2836" d="m279.354 256.945-35.025-.1a1.274 1.274 0 0 1-1.216-1.324v-.83a1.273 1.273 0 0 1 1.223-1.317l35.025.1a1.318 1.318 0 0 1 1.313 1.324v.829a1.319 1.319 0 0 1-1.32 1.318Z" transform="translate(34.988 -107.254)" fill="url(#ai)"/><g data-name="Group 196" transform="translate(281.557 147.071)" fill="#544140"><rect data-name="Rectangle 56" width="6.882" height=".955" rx=".252" transform="rotate(.166 -108.032 1.192)"/><rect data-name="Rectangle 57" width="6.882" height=".955" rx=".252" transform="rotate(.166 -112.062 2937.438)"/><path data-name="Path 2837" d="M31.676.884a.875.875 0 1 1-.874-.881.877.877 0 0 1 .874.881Z"/></g></g><path data-name="Path 2838" d="M243.451 188.03c-14.563 3.729-20.671 19.463-26.269 37.241-4.486 14.25-5.882 30.587-2.5 36.408 6.348 10.917 38.513 10.314 49.639 10.073a17.163 17.163 0 0 0 3.482-10.616s-20.441-7.316-33.676-13.223c0 0 .58-6.091 4.041-17.756 3.584-12.073 14.465-38.808 5.283-42.127Z" transform="translate(26.474 -125.608)" fill="url(#aj)"/><path data-name="Path 2839" d="M252.913 243.759a21.678 21.678 0 0 1-3.908 12.422c1.989-.018 3.74-.054 5.149-.085a17.15 17.15 0 0 0 3.481-10.616s-1.835-.657-4.722-1.721Z" transform="translate(36.643 -109.954)" fill="#fff" opacity=".3" style="mix-blend-mode:screen;isolation:isolate"/><path data-name="Path 2840" d="M218.084 257.632c-5.384-9.1 5.322-57.333 20.579-68.173-11.187 5.662-16.543 19.727-21.481 35.409-4.487 14.251-5.882 30.588-2.5 36.41 6.348 10.917 38.514 10.314 49.639 10.073a16.28 16.28 0 0 0 2.444-4.432c-12.128-.087-42.631.937-48.681-9.287Z" transform="translate(26.474 -125.207)" fill="#60578f" opacity=".4" style="mix-blend-mode:multiply;isolation:isolate"/><path data-name="Path 2841" d="M243.692 190.309a22.48 22.48 0 0 0 3.7 3.674 26.181 26.181 0 0 0 4.379 2.952 23.84 23.84 0 0 0 5.577 2.238 27.714 27.714 0 0 0 5.942.973 37.636 37.636 0 0 0 5.3-.2 34.871 34.871 0 0 0 3.752-.534l1.429-.248-1.376.455a21.711 21.711 0 0 1-3.7 1.032 24.209 24.209 0 0 1-11.682-.261 25.053 25.053 0 0 1-5.788-2.507 22.1 22.1 0 0 1-4.31-3.378 18.1 18.1 0 0 1-3.223-4.196Z" transform="translate(35.15 -124.968)" fill="#60578f" opacity=".4" style="mix-blend-mode:multiply;isolation:isolate"/><g data-name="Group 198" opacity=".3" style="mix-blend-mode:screen;isolation:isolate" fill="#fff"><path data-name="Path 2842" d="m269.402 89.792-20.306-5.28q-2.012 4.753-3.758 10.008l20.775 5.4c.998-3.054 2.166-6.529 3.289-10.128Z"/><path data-name="Path 2843" d="m264.327 105.663-20.836-5.418q-.648 2.1-1.2 4.247l20.863 5.426a154.68 154.68 0 0 1 1.173-4.255Z"/></g></g></g><g data-name="Group 204" transform="translate(128.498 174.344)"><path data-name="Path 2844" d="M169.8 346.374c0-3.7 12.653-10.747 17.817-21.373 4.582-9.43 6.325-27.482 6.217-41.346h-63.006c.1 13.744 1.868 31.83 6.885 41.046 6.077 11.158 17.151 18.568 17.151 21.673s-13.838 11.226-19.31 24.14c-3.888 9.178-4.828 34.628-4.727 46.8h63.007c-.159-12.55-1.339-37.215-5.016-45.743-5.576-12.93-19.018-21.498-19.018-25.197Zm-35.419 67.393c.09-13.6 1.282-34.4 4.445-41.874 3.058-7.219 9.111-12.918 13.535-17.086 3.9-3.675 6.054-5.7 6.054-8.432 0-2.822-2.3-5.179-6.116-9.083-3.7-3.786-8.314-8.5-11.461-14.291-4.217-7.731-6.039-22.945-6.393-35.793h55.825c-.195 12.946-2 28.326-5.846 36.237-2.578 5.318-7.433 9.812-11.337 13.417-4.118 3.807-6.836 6.324-6.836 9.513 0 2.99 2.44 5.478 6.476 9.611 4.154 4.244 9.846 10.055 12.835 17 2.732 6.344 4.285 24.885 4.66 40.785Z" transform="translate(-125.054 -273.091)" fill="url(#ak)"/><path data-name="Path 2845" d="M133.6 412.988c.09-13.6 1.282-34.4 4.445-41.874 3.058-7.219 9.111-12.918 13.535-17.086 3.9-3.675 6.054-5.7 6.054-8.432 0-2.822-2.3-5.179-6.116-9.083-3.7-3.786-8.314-8.5-11.461-14.291-4.217-7.731-6.039-22.945-6.393-35.793h55.825c-.195 12.946-2 28.326-5.846 36.237-2.578 5.318-7.433 9.812-11.337 13.417-4.118 3.807-6.836 6.324-6.836 9.513 0 2.99 2.44 5.478 6.476 9.611 4.154 4.244 9.846 10.055 12.835 17 2.732 6.344 4.285 24.885 4.66 40.785Z" transform="translate(-124.274 -272.312)" opacity=".5" fill="url(#ak)"/><rect data-name="Rectangle 58" width="68.071" height="14.201" rx="1.761" transform="translate(3.242 140.677)" fill="url(#m)"/><rect data-name="Rectangle 59" width="68.071" height="14.201" rx="1.761" transform="translate(3.242)" fill="url(#al)"/><path data-name="Path 2846" d="M194.765 385.235h-24.587v2.521a2.265 2.265 0 0 1-2.156 2.361H128.85v6.959a2.264 2.264 0 0 0 2.15 2.359h63.761a2.264 2.264 0 0 0 2.156-2.359V387.6a2.265 2.265 0 0 0-2.152-2.365Z" transform="translate(-125.608 -244.558)" fill="#463332" opacity=".3" style="mix-blend-mode:multiply;isolation:isolate"/><path data-name="Path 2847" d="M194.765 275.408H131a2.265 2.265 0 0 0-2.154 2.361v6.811h39.172a2.265 2.265 0 0 1 2.156 2.361v2.669h24.587a2.265 2.265 0 0 0 2.156-2.361v-9.48a2.265 2.265 0 0 0-2.152-2.361Z" transform="translate(-125.608 -275.408)" fill="#463332" opacity=".3" style="mix-blend-mode:multiply;isolation:isolate"/><rect data-name="Rectangle 60" width="74.554" height="7.261" rx="1.318" transform="translate(0 147.617)" fill="url(#am)"/><path data-name="Path 2848" d="M189.13 390.653h-26.743a1.7 1.7 0 0 1 1.613 1.766v3.727a1.7 1.7 0 0 1-1.613 1.766h26.743a1.7 1.7 0 0 0 1.613-1.766v-3.727a1.7 1.7 0 0 0-1.613-1.766Z" transform="translate(-116.187 -243.036)" fill="#463332" opacity=".3" style="mix-blend-mode:multiply;isolation:isolate"/><rect data-name="Rectangle 61" width="74.554" height="7.261" rx="1.318" fill="url(#an)"/><path data-name="Path 2849" d="M169.8 346.374c0-3.7 12.653-10.747 17.817-21.373 4.582-9.43 6.325-27.482 6.217-41.346h-63.008c.02 2.905.118 6 .3 9.173h39.19s1.958 23.136-2.663 36.981c-3.265 9.777-5.03 13.387-5.03 17.751s10.074 10.973 8.838 69.759h22.37c-.159-12.55-1.339-37.215-5.016-45.743-5.575-12.935-19.015-21.503-19.015-25.202Z" transform="translate(-125.053 -273.091)" fill="#398191" opacity=".3" style="mix-blend-mode:multiply;isolation:isolate"/><path data-name="Path 2850" d="M189.13 275.408h-26.743a1.7 1.7 0 0 1 1.613 1.766v3.726a1.7 1.7 0 0 1-1.613 1.768h26.743a1.7 1.7 0 0 0 1.613-1.768v-3.727a1.7 1.7 0 0 0-1.613-1.765Z" transform="translate(-116.187 -275.408)" fill="#463332" opacity=".3" style="mix-blend-mode:multiply;isolation:isolate"/><path data-name="Path 2851" d="M171.775 331.023c3.9-3.606 8.759-8.1 11.337-13.417a52.962 52.962 0 0 0 3.766-13.163h-51.392a46.462 46.462 0 0 0 4.04 12.719c3.147 5.79 7.758 10.5 11.461 14.291 3.813 3.9 6.931 6.85 8.276 8.848 1.7 2.527 2.219 2.29 3.686 0 1.256-1.958 4.708-5.471 8.826-9.278Z" transform="translate(-123.744 -267.252)" fill="url(#ao)"/><path data-name="Path 2852" d="M186.32 307.253c.193-.922.387-1.844.558-2.81h-51.392c.19.966.4 1.889.617 2.81Z" transform="translate(-123.744 -267.252)" fill="#ffe675" style="mix-blend-mode:screen;isolation:isolate"/><path data-name="Path 2853" d="M134.2 373.573c-.166 3.18-.57 12.043-.6 17.1h55.839c-.132-5.592-.469-12.718-.84-17.1-12.4-.147-19.947-7.692-26.827-7.692s-15.972 7.766-27.572 7.692Z" transform="translate(-124.274 -249.994)" fill="url(#ao)"/><path data-name="Path 2854" d="M162.676 367.678c6.849 0 16.494 7.392 25.813 5.895-11.072.245-19.947-7.692-26.826-7.692s-15.977 7.766-27.57 7.692c-.027.524-.061 1.24-.1 2.028 12.026-.158 21.507-7.923 28.683-7.923Z" transform="translate(-124.163 -249.994)" fill="#ffe675" style="mix-blend-mode:screen;isolation:isolate"/><path data-name="Path 2855" d="M179 304.443a36.984 36.984 0 0 1-2.414 7.278c-9.451 19.481-26.135 22.884-38.795-.4a27.517 27.517 0 0 1-1.943-4.743 42.133 42.133 0 0 0 3.571 10.58c3.147 5.79 7.758 10.5 11.462 14.291 3.813 3.9 6.93 6.85 8.276 8.848 1.7 2.527 2.217 2.29 3.686 0 1.255-1.96 4.707-5.472 8.825-9.279 3.9-3.606 8.759-8.1 11.337-13.417a52.964 52.964 0 0 0 3.766-13.163Z" transform="translate(-123.641 -267.252)" fill="#aa2424" opacity=".2" style="mix-blend-mode:multiply;isolation:isolate"/><path data-name="Path 2856" d="M188.6 373.553c-10.808.05-18.969-6.762-25.508-7.6 3.636 1.47 6 3.467 6 6.176 0 5.583-8.843 8.474-18.112 8.474-10.289 0-16.355-3.717-16.681-7.145-.033 0-.064.008-.1.008-.166 3.2-.57 12.1-.6 17.183h55.839c-.13-5.62-.548-12.882-.838-17.096Z" transform="translate(-124.274 -249.974)" fill="#aa2424" opacity=".2" style="mix-blend-mode:multiply;isolation:isolate"/><g data-name="Group 202" transform="translate(32.84 78.832)"><circle data-name="Ellipse 25" cx="1.664" cy="1.664" r="1.664" transform="translate(2.773)" fill="#ed9c47"/><circle data-name="Ellipse 26" cx="1.664" cy="1.664" r="1.664" transform="translate(3.328 31.064)" fill="#ed9c47"/><path data-name="Path 2857" d="M7.389 13.424a1.177 1.177 0 1 1-1.177-1.176 1.177 1.177 0 0 1 1.177 1.176Z" fill="#ed9c47"/><path data-name="Path 2858" d="M2.551 7.323a.888.888 0 1 1-.888-.888.888.888 0 0 1 .888.888Z" fill="#ed9c47"/><circle data-name="Ellipse 27" cx=".888" cy=".888" r=".888" transform="translate(4.326 26.516)" fill="#ed9c47"/><path data-name="Path 2859" d="M8.875 35.613a.888.888 0 1 1-.888-.888.888.888 0 0 1 .888.888Z" fill="#ed9c47"/><path data-name="Path 2860" d="M1.775 36.168a.888.888 0 1 1-.888-.888.888.888 0 0 1 .888.888Z" fill="#ed9c47"/><circle data-name="Ellipse 28" cx=".888" cy=".888" r=".888" transform="translate(5.991 3.661)" fill="#ed9c47"/><path data-name="Path 2861" d="M5.436 16.642a.888.888 0 1 1-.888-.888.887.887 0 0 1 .888.888Z" fill="#ed9c47"/><g data-name="Group 201" opacity=".2" style="mix-blend-mode:multiply;isolation:isolate" fill="#aa2424"><path data-name="Path 2862" d="M4.542.005a1.531 1.531 0 1 1-1.665 2.231A1.663 1.663 0 1 0 4.542.005Z"/><path data-name="Path 2863" d="M5.557 31.165a1.53 1.53 0 1 1-2.144 2.087 1.664 1.664 0 1 0 2.144-2.087Z"/><path data-name="Path 2864" d="M6.434 12.27a1.081 1.081 0 1 1-1.281 1.659 1.175 1.175 0 1 0 1.281-1.659Z"/><path data-name="Path 2865" d="M1.804 6.449a.815.815 0 1 1-.891 1.34.886.886 0 1 0 .891-1.34Z"/><path data-name="Path 2866" d="M5.525 26.576a.815.815 0 1 1-1.141 1.137.886.886 0 1 0 1.141-1.137Z"/><path data-name="Path 2867" d="M8.314 34.788a.814.814 0 1 1-1.145 1.157.887.887 0 1 0 1.145-1.157Z"/><path data-name="Path 2868" d="M1.311 35.392a.815.815 0 1 1-1.283.99.886.886 0 1 0 1.283-.99Z"/><path data-name="Path 2869" d="M7.036 3.677A.814.814 0 1 1 6.119 5a.885.885 0 1 0 .917-1.323Z"/><path data-name="Path 2870" d="M5.007 15.886a.813.813 0 1 1-1.33.925.887.887 0 1 0 1.33-.925Z"/></g></g><path data-name="Path 2871" d="M152.883 344.665c9.043 4.03-7.245 21.158-12.111 19.178-7.548-3.072 4.223-22.693 12.111-19.178Z" transform="translate(-122.94 -256.072)" fill="#fff7e6" opacity=".6" style="mix-blend-mode:screen;isolation:isolate"/><path data-name="Path 2872" d="M129.113 393.229c-.015 2.582 34.892 1.248 34.9-.149s-34.886-2.435-34.9.149Z" transform="translate(-125.534 -242.758)" fill="#fff7e6" opacity=".3" style="mix-blend-mode:screen;isolation:isolate"/><path data-name="Path 2873" d="M129.113 278.2c-.015 2.584 34.892 1.249 34.9-.149s-34.886-2.43-34.9.149Z" transform="translate(-125.534 -275.068)" fill="#fff7e6" opacity=".3" style="mix-blend-mode:screen;isolation:isolate"/><g data-name="Group 203" opacity=".6" style="mix-blend-mode:screen;isolation:isolate" fill="#fff7e6"><path data-name="Path 2874" d="M18.228 22.669c9.866-.849 8.551 22.193 3.551 23.816-6.691 2.173-11.572-23.127-3.551-23.816Z"/><path data-name="Path 2875" d="M23.678 49.574c4.748-3.015 11.283 10.523 8.919 11.842-3.671 2.051-12.645-9.479-8.919-11.842Z"/></g></g></g></g></svg>