<svg xmlns="http://www.w3.org/2000/svg" width="70.598" height="69.211"><g data-name="Group 341" transform="translate(-746.468 -368.284)"><g data-name="Group 298" fill="#29b4e3"><g data-name="Group 290"><path data-name="Path 580" d="M748.566 413.704a1.049 1.049 0 1 1-1.049-1.049 1.049 1.049 0 0 1 1.049 1.049Z"/><path data-name="Path 581" d="M755.282 413.704a1.049 1.049 0 1 1-1.049-1.049 1.049 1.049 0 0 1 1.049 1.049Z"/><path data-name="Path 582" d="M761.999 413.704a1.05 1.05 0 1 1-1.05-1.049 1.049 1.049 0 0 1 1.05 1.049Z"/><path data-name="Path 583" d="M768.715 413.704a1.05 1.05 0 1 1-1.05-1.049 1.049 1.049 0 0 1 1.05 1.049Z"/><path data-name="Path 584" d="M775.43 413.704a1.05 1.05 0 1 1-1.049-1.049 1.049 1.049 0 0 1 1.049 1.049Z"/><path data-name="Path 585" d="M782.146 413.704a1.05 1.05 0 1 1-1.049-1.049 1.049 1.049 0 0 1 1.049 1.049Z"/><path data-name="Path 586" d="M788.862 413.704a1.049 1.049 0 1 1-1.049-1.049 1.049 1.049 0 0 1 1.049 1.049Z"/><path data-name="Path 587" d="M795.581 413.704a1.05 1.05 0 1 1-1.05-1.049 1.05 1.05 0 0 1 1.05 1.049Z"/></g><g data-name="Group 291"><path data-name="Path 588" d="M748.566 407.366a1.049 1.049 0 1 1-1.049-1.05 1.049 1.049 0 0 1 1.049 1.05Z"/><path data-name="Path 589" d="M755.282 407.366a1.049 1.049 0 1 1-1.049-1.05 1.049 1.049 0 0 1 1.049 1.05Z"/><path data-name="Path 590" d="M761.999 407.366a1.05 1.05 0 1 1-1.05-1.05 1.049 1.049 0 0 1 1.05 1.05Z"/><path data-name="Path 591" d="M768.715 407.366a1.05 1.05 0 1 1-1.05-1.05 1.049 1.049 0 0 1 1.05 1.05Z"/><path data-name="Path 592" d="M775.43 407.366a1.05 1.05 0 1 1-1.049-1.05 1.049 1.049 0 0 1 1.049 1.05Z"/><path data-name="Path 593" d="M782.146 407.366a1.05 1.05 0 1 1-1.049-1.05 1.049 1.049 0 0 1 1.049 1.05Z"/><path data-name="Path 594" d="M788.862 407.366a1.049 1.049 0 1 1-1.049-1.05 1.049 1.049 0 0 1 1.049 1.05Z"/><path data-name="Path 595" d="M795.581 407.366a1.05 1.05 0 1 1-1.05-1.05 1.05 1.05 0 0 1 1.05 1.05Z"/></g><g data-name="Group 292"><path data-name="Path 596" d="M748.566 401.027a1.049 1.049 0 1 1-1.049-1.05 1.049 1.049 0 0 1 1.049 1.05Z"/><path data-name="Path 597" d="M755.282 401.027a1.049 1.049 0 1 1-1.049-1.05 1.049 1.049 0 0 1 1.049 1.05Z"/><path data-name="Path 598" d="M761.999 401.027a1.05 1.05 0 1 1-1.05-1.05 1.049 1.049 0 0 1 1.05 1.05Z"/><path data-name="Path 599" d="M768.715 401.027a1.05 1.05 0 1 1-1.05-1.05 1.049 1.049 0 0 1 1.05 1.05Z"/><path data-name="Path 600" d="M775.43 401.027a1.05 1.05 0 1 1-1.049-1.05 1.049 1.049 0 0 1 1.049 1.05Z"/><path data-name="Path 601" d="M782.146 401.027a1.05 1.05 0 1 1-1.049-1.05 1.049 1.049 0 0 1 1.049 1.05Z"/><path data-name="Path 602" d="M788.862 401.027a1.049 1.049 0 1 1-1.049-1.05 1.049 1.049 0 0 1 1.049 1.05Z"/><path data-name="Path 603" d="M795.581 401.027a1.05 1.05 0 1 1-1.05-1.05 1.05 1.05 0 0 1 1.05 1.05Z"/></g><g data-name="Group 293"><path data-name="Path 604" d="M748.566 394.688a1.049 1.049 0 1 1-1.049-1.049 1.049 1.049 0 0 1 1.049 1.049Z"/><path data-name="Path 605" d="M755.282 394.688a1.049 1.049 0 1 1-1.049-1.049 1.049 1.049 0 0 1 1.049 1.049Z"/><path data-name="Path 606" d="M761.999 394.688a1.05 1.05 0 1 1-1.05-1.049 1.049 1.049 0 0 1 1.05 1.049Z"/><path data-name="Path 607" d="M768.715 394.688a1.05 1.05 0 1 1-1.05-1.049 1.05 1.05 0 0 1 1.05 1.049Z"/><path data-name="Path 608" d="M775.43 394.688a1.05 1.05 0 1 1-1.049-1.049 1.049 1.049 0 0 1 1.049 1.049Z"/><path data-name="Path 609" d="M782.146 394.688a1.05 1.05 0 1 1-1.049-1.049 1.049 1.049 0 0 1 1.049 1.049Z"/><path data-name="Path 610" d="M788.862 394.688a1.049 1.049 0 1 1-1.049-1.049 1.049 1.049 0 0 1 1.049 1.049Z"/><path data-name="Path 611" d="M795.581 394.688a1.05 1.05 0 1 1-1.05-1.049 1.05 1.05 0 0 1 1.05 1.049Z"/></g><g data-name="Group 294"><path data-name="Path 612" d="M748.566 388.349a1.049 1.049 0 1 1-1.049-1.049 1.049 1.049 0 0 1 1.049 1.049Z"/><path data-name="Path 613" d="M755.282 388.349a1.049 1.049 0 1 1-1.049-1.049 1.049 1.049 0 0 1 1.049 1.049Z"/><path data-name="Path 614" d="M761.999 388.349a1.05 1.05 0 1 1-1.05-1.049 1.049 1.049 0 0 1 1.05 1.049Z"/><path data-name="Path 615" d="M768.715 388.349a1.05 1.05 0 1 1-1.05-1.049 1.049 1.049 0 0 1 1.05 1.049Z"/><path data-name="Path 616" d="M775.43 388.349a1.05 1.05 0 1 1-1.049-1.049 1.049 1.049 0 0 1 1.049 1.049Z"/><path data-name="Path 617" d="M782.146 388.349a1.05 1.05 0 1 1-1.049-1.049 1.049 1.049 0 0 1 1.049 1.049Z"/><path data-name="Path 618" d="M788.862 388.349a1.049 1.049 0 1 1-1.049-1.049 1.049 1.049 0 0 1 1.049 1.049Z"/><path data-name="Path 619" d="M795.581 388.349a1.05 1.05 0 1 1-1.05-1.049 1.05 1.05 0 0 1 1.05 1.049Z"/></g><g data-name="Group 295"><path data-name="Path 620" d="M748.566 382.011a1.049 1.049 0 1 1-1.049-1.049 1.049 1.049 0 0 1 1.049 1.049Z"/><path data-name="Path 621" d="M755.282 382.011a1.049 1.049 0 1 1-1.049-1.049 1.049 1.049 0 0 1 1.049 1.049Z"/><path data-name="Path 622" d="M761.999 382.011a1.05 1.05 0 1 1-1.05-1.049 1.049 1.049 0 0 1 1.05 1.049Z"/><path data-name="Path 623" d="M768.715 382.011a1.05 1.05 0 1 1-1.05-1.049 1.049 1.049 0 0 1 1.05 1.049Z"/><path data-name="Path 624" d="M775.43 382.011a1.05 1.05 0 1 1-1.049-1.049 1.049 1.049 0 0 1 1.049 1.049Z"/><path data-name="Path 625" d="M782.146 382.011a1.05 1.05 0 1 1-1.049-1.049 1.049 1.049 0 0 1 1.049 1.049Z"/><path data-name="Path 626" d="M788.862 382.011a1.049 1.049 0 1 1-1.049-1.049 1.049 1.049 0 0 1 1.049 1.049Z"/><path data-name="Path 627" d="M795.581 382.011a1.05 1.05 0 1 1-1.05-1.049 1.05 1.05 0 0 1 1.05 1.049Z"/></g><g data-name="Group 296"><path data-name="Path 628" d="M748.566 375.672a1.049 1.049 0 1 1-1.049-1.05 1.049 1.049 0 0 1 1.049 1.05Z"/><path data-name="Path 629" d="M755.282 375.672a1.049 1.049 0 1 1-1.049-1.05 1.049 1.049 0 0 1 1.049 1.05Z"/><path data-name="Path 630" d="M761.999 375.672a1.05 1.05 0 1 1-1.05-1.05 1.049 1.049 0 0 1 1.05 1.05Z"/><path data-name="Path 631" d="M768.715 375.672a1.05 1.05 0 1 1-1.05-1.05 1.049 1.049 0 0 1 1.05 1.05Z"/><path data-name="Path 632" d="M775.43 375.672a1.05 1.05 0 1 1-1.049-1.05 1.049 1.049 0 0 1 1.049 1.05Z"/><path data-name="Path 633" d="M782.146 375.672a1.05 1.05 0 1 1-1.049-1.05 1.049 1.049 0 0 1 1.049 1.05Z"/><path data-name="Path 634" d="M788.862 375.672a1.049 1.049 0 1 1-1.049-1.05 1.049 1.049 0 0 1 1.049 1.05Z"/><path data-name="Path 635" d="M795.581 375.672a1.05 1.05 0 1 1-1.05-1.05 1.05 1.05 0 0 1 1.05 1.05Z"/></g><g data-name="Group 297"><path data-name="Path 636" d="M748.566 369.333a1.049 1.049 0 1 1-1.049-1.049 1.049 1.049 0 0 1 1.049 1.049Z"/><path data-name="Path 637" d="M755.282 369.333a1.049 1.049 0 1 1-1.049-1.049 1.049 1.049 0 0 1 1.049 1.049Z"/><path data-name="Path 638" d="M761.999 369.333a1.05 1.05 0 1 1-1.05-1.049 1.049 1.049 0 0 1 1.05 1.049Z"/><path data-name="Path 639" d="M768.715 369.333a1.05 1.05 0 1 1-1.05-1.049 1.05 1.05 0 0 1 1.05 1.049Z"/><path data-name="Path 640" d="M775.43 369.333a1.05 1.05 0 1 1-1.049-1.049 1.049 1.049 0 0 1 1.049 1.049Z"/><path data-name="Path 641" d="M782.146 369.333a1.05 1.05 0 1 1-1.049-1.049 1.049 1.049 0 0 1 1.049 1.049Z"/><path data-name="Path 642" d="M788.862 369.333a1.049 1.049 0 1 1-1.049-1.049 1.049 1.049 0 0 1 1.049 1.049Z"/><path data-name="Path 643" d="M795.581 369.333a1.05 1.05 0 1 1-1.05-1.049 1.05 1.05 0 0 1 1.05 1.049Z"/></g></g><rect data-name="Rectangle 81" width="46.629" height="46.629" rx="1.633" transform="translate(769.992 390.422)" fill="none" stroke="#ed7565" stroke-width=".889"/></g></svg>