<svg xmlns="http://www.w3.org/2000/svg" width="141" height="150"><g data-name="Group 219" transform="translate(0 -.25)" opacity=".38" fill="#29b4e3"><ellipse data-name="Ellipse 30" cx="3" cy="2.5" rx="3" ry="2.5" transform="translate(0 .251)"/><ellipse data-name="Ellipse 30" cx="3" cy="2.5" rx="3" ry="2.5" transform="translate(17 .251)"/><ellipse data-name="Ellipse 30" cx="3" cy="2.5" rx="3" ry="2.5" transform="translate(34 .251)"/><circle data-name="Ellipse 30" cx="2.5" cy="2.5" r="2.5" transform="translate(51 .251)"/><circle data-name="Ellipse 30" cx="2.5" cy="2.5" r="2.5" transform="translate(68 .251)"/><circle data-name="Ellipse 30" cx="2.5" cy="2.5" r="2.5" transform="translate(85 .251)"/><circle data-name="Ellipse 30" cx="2.5" cy="2.5" r="2.5" transform="translate(102 .251)"/><circle data-name="Ellipse 30" cx="2.5" cy="2.5" r="2.5" transform="translate(119 .251)"/><ellipse data-name="Ellipse 30" cx="3" cy="2.5" rx="3" ry="2.5" transform="translate(135 .251)"/><circle data-name="Ellipse 30" cx="3" cy="3" r="3" transform="translate(0 20.251)"/><circle data-name="Ellipse 30" cx="3" cy="3" r="3" transform="translate(17 20.251)"/><circle data-name="Ellipse 30" cx="3" cy="3" r="3" transform="translate(34 20.251)"/><ellipse data-name="Ellipse 30" cx="2.5" cy="3" rx="2.5" ry="3" transform="translate(51 20.251)"/><ellipse data-name="Ellipse 30" cx="2.5" cy="3" rx="2.5" ry="3" transform="translate(68 20.251)"/><ellipse data-name="Ellipse 30" cx="2.5" cy="3" rx="2.5" ry="3" transform="translate(85 20.251)"/><ellipse data-name="Ellipse 30" cx="2.5" cy="3" rx="2.5" ry="3" transform="translate(102 20.251)"/><ellipse data-name="Ellipse 30" cx="2.5" cy="3" rx="2.5" ry="3" transform="translate(119 20.251)"/><circle data-name="Ellipse 30" cx="3" cy="3" r="3" transform="translate(135 20.251)"/><circle data-name="Ellipse 30" cx="3" cy="3" r="3" transform="translate(0 41.251)"/><circle data-name="Ellipse 30" cx="3" cy="3" r="3" transform="translate(17 41.251)"/><circle data-name="Ellipse 30" cx="3" cy="3" r="3" transform="translate(34 41.251)"/><ellipse data-name="Ellipse 30" cx="2.5" cy="3" rx="2.5" ry="3" transform="translate(51 41.251)"/><ellipse data-name="Ellipse 30" cx="2.5" cy="3" rx="2.5" ry="3" transform="translate(68 41.251)"/><ellipse data-name="Ellipse 30" cx="2.5" cy="3" rx="2.5" ry="3" transform="translate(85 41.251)"/><ellipse data-name="Ellipse 30" cx="2.5" cy="3" rx="2.5" ry="3" transform="translate(102 41.251)"/><ellipse data-name="Ellipse 30" cx="2.5" cy="3" rx="2.5" ry="3" transform="translate(119 41.251)"/><circle data-name="Ellipse 30" cx="3" cy="3" r="3" transform="translate(135 41.251)"/><ellipse data-name="Ellipse 30" cx="3" cy="2.5" rx="3" ry="2.5" transform="translate(0 62.251)"/><ellipse data-name="Ellipse 30" cx="3" cy="2.5" rx="3" ry="2.5" transform="translate(17 62.251)"/><ellipse data-name="Ellipse 30" cx="3" cy="2.5" rx="3" ry="2.5" transform="translate(34 62.251)"/><circle data-name="Ellipse 30" cx="2.5" cy="2.5" r="2.5" transform="translate(51 62.251)"/><circle data-name="Ellipse 30" cx="2.5" cy="2.5" r="2.5" transform="translate(68 62.251)"/><circle data-name="Ellipse 30" cx="2.5" cy="2.5" r="2.5" transform="translate(85 62.251)"/><circle data-name="Ellipse 30" cx="2.5" cy="2.5" r="2.5" transform="translate(102 62.251)"/><circle data-name="Ellipse 30" cx="2.5" cy="2.5" r="2.5" transform="translate(119 62.251)"/><ellipse data-name="Ellipse 30" cx="3" cy="2.5" rx="3" ry="2.5" transform="translate(135 62.251)"/><ellipse data-name="Ellipse 30" cx="3" cy="2.5" rx="3" ry="2.5" transform="translate(0 83.251)"/><ellipse data-name="Ellipse 30" cx="3" cy="2.5" rx="3" ry="2.5" transform="translate(17 83.251)"/><ellipse data-name="Ellipse 30" cx="3" cy="2.5" rx="3" ry="2.5" transform="translate(34 83.251)"/><circle data-name="Ellipse 30" cx="2.5" cy="2.5" r="2.5" transform="translate(51 83.251)"/><circle data-name="Ellipse 30" cx="2.5" cy="2.5" r="2.5" transform="translate(68 83.251)"/><circle data-name="Ellipse 30" cx="2.5" cy="2.5" r="2.5" transform="translate(85 83.251)"/><circle data-name="Ellipse 30" cx="2.5" cy="2.5" r="2.5" transform="translate(102 83.251)"/><circle data-name="Ellipse 30" cx="2.5" cy="2.5" r="2.5" transform="translate(119 83.251)"/><ellipse data-name="Ellipse 30" cx="3" cy="2.5" rx="3" ry="2.5" transform="translate(135 83.251)"/><circle data-name="Ellipse 30" cx="3" cy="3" r="3" transform="translate(0 103.251)"/><circle data-name="Ellipse 30" cx="3" cy="3" r="3" transform="translate(17 103.251)"/><circle data-name="Ellipse 30" cx="3" cy="3" r="3" transform="translate(34 103.251)"/><ellipse data-name="Ellipse 30" cx="2.5" cy="3" rx="2.5" ry="3" transform="translate(51 103.251)"/><ellipse data-name="Ellipse 30" cx="2.5" cy="3" rx="2.5" ry="3" transform="translate(68 103.251)"/><ellipse data-name="Ellipse 30" cx="2.5" cy="3" rx="2.5" ry="3" transform="translate(85 103.251)"/><ellipse data-name="Ellipse 30" cx="2.5" cy="3" rx="2.5" ry="3" transform="translate(102 103.251)"/><ellipse data-name="Ellipse 30" cx="2.5" cy="3" rx="2.5" ry="3" transform="translate(119 103.251)"/><circle data-name="Ellipse 30" cx="3" cy="3" r="3" transform="translate(135 103.251)"/><circle data-name="Ellipse 30" cx="3" cy="3" r="3" transform="translate(0 124.251)"/><circle data-name="Ellipse 30" cx="3" cy="3" r="3" transform="translate(17 124.251)"/><circle data-name="Ellipse 30" cx="3" cy="3" r="3" transform="translate(34 124.251)"/><ellipse data-name="Ellipse 30" cx="2.5" cy="3" rx="2.5" ry="3" transform="translate(51 124.251)"/><ellipse data-name="Ellipse 30" cx="2.5" cy="3" rx="2.5" ry="3" transform="translate(68 124.251)"/><ellipse data-name="Ellipse 30" cx="2.5" cy="3" rx="2.5" ry="3" transform="translate(85 124.251)"/><ellipse data-name="Ellipse 30" cx="2.5" cy="3" rx="2.5" ry="3" transform="translate(102 124.251)"/><ellipse data-name="Ellipse 30" cx="2.5" cy="3" rx="2.5" ry="3" transform="translate(119 124.251)"/><circle data-name="Ellipse 30" cx="3" cy="3" r="3" transform="translate(135 124.251)"/><ellipse data-name="Ellipse 30" cx="3" cy="2.5" rx="3" ry="2.5" transform="translate(0 145.251)"/><ellipse data-name="Ellipse 30" cx="3" cy="2.5" rx="3" ry="2.5" transform="translate(17 145.251)"/><ellipse data-name="Ellipse 30" cx="3" cy="2.5" rx="3" ry="2.5" transform="translate(34 145.251)"/><circle data-name="Ellipse 30" cx="2.5" cy="2.5" r="2.5" transform="translate(51 145.251)"/><circle data-name="Ellipse 30" cx="2.5" cy="2.5" r="2.5" transform="translate(68 145.251)"/><circle data-name="Ellipse 30" cx="2.5" cy="2.5" r="2.5" transform="translate(85 145.251)"/><circle data-name="Ellipse 30" cx="2.5" cy="2.5" r="2.5" transform="translate(102 145.251)"/><circle data-name="Ellipse 30" cx="2.5" cy="2.5" r="2.5" transform="translate(119 145.251)"/><ellipse data-name="Ellipse 30" cx="3" cy="2.5" rx="3" ry="2.5" transform="translate(135 145.251)"/></g></svg>